<svg width="269" height="81" fill="none" xmlns="http://www.w3.org/2000/svg"><path d="M51.18 40.5V53h30.866l1.263-2.924c1.234-2.881 1.262-3.05 1.262-6.356v-3.39l-1.375-.127-1.375-.127 1.235-2.881c1.178-2.712 1.234-3.009 1.234-6.017V28H51.182v12.5zm21.718-4.788c.224.55.224.974 0 1.483-.28.678-.898.763-4.995.89l-4.657.084V34.78l4.657.084c4.097.128 4.714.212 4.995.848zm-.28 7.246c.308.339.476.974.392 1.61l-.084 1.017-4.826.127-4.854.085v-3.39h4.433c3.199 0 4.573.17 4.938.55zm15.515-14.661c-.112.127-.196 5.762-.196 12.5V53h29.068l.73-3.39.73-3.39-8.867-.084-8.894-.128v-2.966l8.221-.127 8.193-.084v-5.085h-16.555v-2.543h16.555V28h-14.394c-7.94 0-14.506.127-14.59.297zM121.326 40.5V53h25.758l.73-3.305c.392-1.78.729-3.39.729-3.602 0-.17-3.143-.296-7.015-.296h-7.014V28h-13.188v12.5zm32.464-12.203c-.084.212-.786 2.796-1.571 5.762l-1.431 5.382V53h12.346v-2.966h4.769V53h12.627V39.61l-1.515-5.678-1.516-5.72-11.784-.127c-6.51-.043-11.869.042-11.925.212zm12.57 6.906c.169.424.982 6.992.982 7.924 0 .381-.533.551-1.683.551-1.908 0-1.852.212-1.403-4.237.477-4.534.505-4.661 1.262-4.661.365 0 .758.17.842.423zm16.975-3.601v3.601h6.089c4.097 0 6.005.127 5.808.424-.168.254-2.75 2.67-5.752 5.424l-5.443 5-.084 3.474-.084 3.475 16.189-.085 16.19-.127.786-3.474.785-3.517-7.211-.085-7.211-.127 6.033-5.34 6.032-5.38.084-3.433.085-3.432h-32.296v3.602z" fill="#273C8D"/></svg>