<svg width="269" height="81" fill="none" xmlns="http://www.w3.org/2000/svg"><path d="M82.49 20.5c-2.375 0-5.226 2.861-7.536 7.665-2.461 5.02-3.887 11.174-3.887 16.546 0 7.88 3.52 15.789 11.423 15.789 7.903 0 11.422-7.908 11.422-15.79 0-5.37-1.425-11.551-3.887-16.518-2.31-4.831-5.16-7.692-7.535-7.692zm61.689 11.768h7.99v26.046h8.572V32.268h7.989v-9.636h-24.551v9.636zm42.861 0h12.567v-9.636H187.04c-11.552 0-17.705 7.18-17.705 17.868 0 10.688 6.175 17.868 17.705 17.868h12.567v-9.663H187.04c-5.355 0-8.831-2.402-8.831-8.205s3.476-8.232 8.831-8.232zm-60.286-9.609l-4.577 21.323-4.578-21.323h-15.136v35.736h8.572V29.299l6.24 29.042h9.825l6.24-29.07v29.07h8.572V22.659h-15.158z" fill="#CB333D"/></svg>