<svg width="451" height="195" viewBox="0 0 451 195" fill="none" xmlns="http://www.w3.org/2000/svg">
<path d="M428.257 95.4817C395.78 92.9054 335.885 116.04 327.67 126.557C327.404 126.898 327.755 127.295 328.163 127.151C373.35 111.176 392.229 108.482 421.978 104.45C425.099 104.027 427.919 99.0139 428.661 96.0394C428.729 95.7643 428.539 95.5042 428.257 95.4817Z" fill="#273C8D" stroke="#273C8D" stroke-width="0.965377"/>
<path d="M447.088 112.834C410.481 108.818 341.762 133.801 332.583 145.586C332.317 145.927 332.673 146.324 333.084 146.189C384.619 129.177 405.976 126.662 439.642 122.941C443.198 122.548 446.572 116.788 447.479 113.402C447.552 113.128 447.37 112.865 447.088 112.834Z" fill="#273C8D" stroke="#273C8D" stroke-width="0.965377"/>
<circle cx="310.617" cy="114.77" r="10.5" fill="#273C8D"/>
<mask id="path-4-outside-1_4226_18769" maskUnits="userSpaceOnUse" x="2" y="41" width="273" height="113" fill="black">
<rect fill="white" x="2" y="41" width="273" height="113"/>
<path d="M51.6 150V124.2H4.05V109.5L56.7 43.5H68.1V109.35H81.3V124.2H68.1V150H51.6ZM20.85 109.35H53.4V68.55L20.85 109.35ZM139.358 151.5C131.858 151.3 125.258 149.55 119.558 146.25C113.858 142.95 109.108 138.65 105.308 133.35C101.508 127.95 98.6082 122.15 96.6082 115.95C94.7082 109.65 93.7582 103.5 93.7582 97.5C93.7582 91.1 94.8082 84.7 96.9082 78.3C99.0082 71.9 102.058 66.1 106.058 60.9C110.058 55.6 114.858 51.4 120.458 48.3C126.058 45.1 132.358 43.5 139.358 43.5C146.858 43.5 153.408 45.2 159.008 48.6C164.708 52 169.458 56.4 173.258 61.8C177.058 67.2 179.908 73.05 181.808 79.35C183.808 85.65 184.808 91.7 184.808 97.5C184.808 104 183.758 110.45 181.658 116.85C179.558 123.15 176.508 128.9 172.508 134.1C168.508 139.3 163.708 143.5 158.108 146.7C152.608 149.8 146.358 151.4 139.358 151.5ZM110.858 97.5C111.058 102.1 111.708 106.7 112.808 111.3C114.008 115.8 115.808 119.95 118.208 123.75C120.608 127.55 123.558 130.6 127.058 132.9C130.558 135.2 134.658 136.35 139.358 136.35C144.258 136.35 148.458 135.15 151.958 132.75C155.558 130.25 158.508 127.05 160.808 123.15C163.108 119.15 164.808 114.9 165.908 110.4C167.108 105.9 167.708 101.6 167.708 97.5C167.708 92.9 167.058 88.35 165.758 83.85C164.558 79.25 162.758 75.05 160.358 71.25C157.958 67.45 155.008 64.4 151.508 62.1C148.008 59.8 143.958 58.65 139.358 58.65C134.458 58.65 130.208 59.9 126.608 62.4C123.008 64.8 120.058 68 117.758 72C115.458 75.9 113.708 80.1 112.508 84.6C111.408 89.1 110.858 93.4 110.858 97.5ZM243.055 150V124.2H195.505V109.5L248.155 43.5H259.555V109.35H272.755V124.2H259.555V150H243.055ZM212.305 109.35H244.855V68.55L212.305 109.35Z"/>
</mask>
<path d="M51.6 150H49.6V152H51.6V150ZM51.6 124.2H53.6V122.2H51.6V124.2ZM4.05 124.2H2.05V126.2H4.05V124.2ZM4.05 109.5L2.48653 108.253L2.05 108.8V109.5H4.05ZM56.7 43.5V41.5H55.737L55.1365 42.2528L56.7 43.5ZM68.1 43.5H70.1V41.5H68.1V43.5ZM68.1 109.35H66.1V111.35H68.1V109.35ZM81.3 109.35H83.3V107.35H81.3V109.35ZM81.3 124.2V126.2H83.3V124.2H81.3ZM68.1 124.2V122.2H66.1V124.2H68.1ZM68.1 150V152H70.1V150H68.1ZM20.85 109.35L19.2866 108.103L16.6959 111.35H20.85V109.35ZM53.4 109.35V111.35H55.4V109.35H53.4ZM53.4 68.55H55.4V62.8361L51.8366 67.3027L53.4 68.55ZM53.6 150V124.2H49.6V150H53.6ZM51.6 122.2H4.05V126.2H51.6V122.2ZM6.05 124.2V109.5H2.05V124.2H6.05ZM5.61347 110.747L58.2635 44.7472L55.1365 42.2528L2.48653 108.253L5.61347 110.747ZM56.7 45.5H68.1V41.5H56.7V45.5ZM66.1 43.5V109.35H70.1V43.5H66.1ZM68.1 111.35H81.3V107.35H68.1V111.35ZM79.3 109.35V124.2H83.3V109.35H79.3ZM81.3 122.2H68.1V126.2H81.3V122.2ZM66.1 124.2V150H70.1V124.2H66.1ZM68.1 148H51.6V152H68.1V148ZM20.85 111.35H53.4V107.35H20.85V111.35ZM55.4 109.35V68.55H51.4V109.35H55.4ZM51.8366 67.3027L19.2866 108.103L22.4134 110.597L54.9634 69.7973L51.8366 67.3027ZM139.358 151.5L139.305 153.499L139.346 153.5L139.387 153.5L139.358 151.5ZM119.558 146.25L118.556 147.981L119.558 146.25ZM105.308 133.35L103.673 134.501L103.678 134.508L103.683 134.515L105.308 133.35ZM96.6082 115.95L94.6934 116.527L94.6989 116.546L94.7048 116.564L96.6082 115.95ZM96.9082 78.3L98.8085 78.9235L96.9082 78.3ZM106.058 60.9L107.643 62.1194L107.649 62.1121L107.655 62.1048L106.058 60.9ZM120.458 48.3L121.427 50.0498L121.439 50.0432L121.45 50.0365L120.458 48.3ZM159.008 48.6L157.97 50.3096L157.977 50.3136L157.984 50.3176L159.008 48.6ZM173.258 61.8L171.623 62.951V62.951L173.258 61.8ZM181.808 79.35L179.893 79.9275L179.898 79.9414L179.902 79.9552L181.808 79.35ZM181.658 116.85L183.556 117.482L183.559 117.474L181.658 116.85ZM172.508 134.1L170.923 132.881L172.508 134.1ZM158.108 146.7L159.09 148.442L159.1 148.436L158.108 146.7ZM110.858 97.5H108.858V97.5435L108.86 97.5869L110.858 97.5ZM112.808 111.3L110.863 111.765L110.869 111.79L110.876 111.815L112.808 111.3ZM118.208 123.75L119.899 122.682L118.208 123.75ZM127.058 132.9L125.96 134.571L127.058 132.9ZM151.958 132.75L153.089 134.399L153.099 134.393L151.958 132.75ZM160.808 123.15L162.531 124.166L162.537 124.156L162.542 124.147L160.808 123.15ZM165.908 110.4L163.976 109.885L163.97 109.905L163.965 109.925L165.908 110.4ZM165.758 83.85L163.823 84.3548L163.83 84.3801L163.837 84.4051L165.758 83.85ZM160.358 71.25L162.049 70.182L160.358 71.25ZM126.608 62.4L127.718 64.0641L127.733 64.0536L127.749 64.0427L126.608 62.4ZM117.758 72L119.481 73.016L119.487 73.0065L119.492 72.9969L117.758 72ZM112.508 84.6L110.576 84.0847L110.57 84.1048L110.565 84.1251L112.508 84.6ZM139.412 149.501C132.198 149.308 125.933 147.63 120.56 144.519L118.556 147.981C124.583 151.47 131.518 153.292 139.305 153.499L139.412 149.501ZM120.56 144.519C115.103 141.36 110.567 137.252 106.934 132.185L103.683 134.515C107.65 140.048 112.613 144.54 118.556 147.981L120.56 144.519ZM106.944 132.199C103.258 126.961 100.449 121.342 98.5116 115.336L94.7048 116.564C96.7674 122.958 99.7584 128.939 103.673 134.501L106.944 132.199ZM98.523 115.373C96.6741 109.242 95.7582 103.286 95.7582 97.5H91.7582C91.7582 103.714 92.7423 110.058 94.6934 116.527L98.523 115.373ZM95.7582 97.5C95.7582 91.3227 96.7711 85.1329 98.8085 78.9235L95.0079 77.6765C92.8453 84.2671 91.7582 90.8773 91.7582 97.5H95.7582ZM98.8085 78.9235C100.84 72.7327 103.785 67.1352 107.643 62.1194L104.473 59.6806C100.331 65.0647 97.1765 71.0673 95.0079 77.6765L98.8085 78.9235ZM107.655 62.1048C111.492 57.0199 116.081 53.009 121.427 50.0498L119.49 46.5502C113.635 49.791 108.624 54.1801 104.462 59.6952L107.655 62.1048ZM121.45 50.0365C126.723 47.0237 132.676 45.5 139.358 45.5V41.5C132.041 41.5 125.394 43.1763 119.466 46.5635L121.45 50.0365ZM139.358 45.5C146.546 45.5 152.726 47.1258 157.97 50.3096L160.046 46.8904C154.09 43.2742 147.17 41.5 139.358 41.5V45.5ZM157.984 50.3176C163.444 53.5745 167.985 57.7819 171.623 62.951L174.894 60.649C170.931 55.0181 165.973 50.4255 160.033 46.8824L157.984 50.3176ZM171.623 62.951C175.3 68.1766 178.055 73.8331 179.893 79.9275L183.723 78.7725C181.761 72.2669 178.817 66.2234 174.894 60.649L171.623 62.951ZM179.902 79.9552C181.848 86.0863 182.808 91.9317 182.808 97.5H186.808C186.808 91.4683 185.768 85.2137 183.714 78.7448L179.902 79.9552ZM182.808 97.5C182.808 103.781 181.794 110.02 179.758 116.226L183.559 117.474C185.722 110.88 186.808 104.219 186.808 97.5H182.808ZM179.761 116.218C177.731 122.308 174.785 127.86 170.923 132.881L174.093 135.319C178.231 129.94 181.386 123.992 183.556 117.482L179.761 116.218ZM170.923 132.881C167.082 137.874 162.482 141.897 157.116 144.964L159.1 148.436C164.934 145.103 169.935 140.726 174.093 135.319L170.923 132.881ZM157.126 144.958C151.948 147.876 146.032 149.404 139.33 149.5L139.387 153.5C146.684 153.396 153.268 151.724 159.09 148.442L157.126 144.958ZM108.86 97.5869C109.066 102.318 109.734 107.044 110.863 111.765L114.753 110.835C113.682 106.356 113.051 101.882 112.856 97.4131L108.86 97.5869ZM110.876 111.815C112.126 116.504 114.005 120.841 116.517 124.818L119.899 122.682C117.611 119.059 115.89 115.096 114.741 110.785L110.876 111.815ZM116.517 124.818C119.058 128.841 122.204 132.104 125.96 134.571L128.157 131.229C124.912 129.096 122.158 126.259 119.899 122.682L116.517 124.818ZM125.96 134.571C129.825 137.111 134.317 138.35 139.358 138.35V134.35C134.999 134.35 131.291 133.289 128.157 131.229L125.96 134.571ZM139.358 138.35C144.598 138.35 149.207 137.062 153.089 134.399L150.827 131.101C147.71 133.238 143.919 134.35 139.358 134.35V138.35ZM153.099 134.393C156.944 131.723 160.089 128.306 162.531 124.166L159.085 122.134C156.927 125.794 154.173 128.777 150.817 131.107L153.099 134.393ZM162.542 124.147C164.936 119.983 166.706 115.557 167.851 110.875L163.965 109.925C162.91 114.243 161.28 118.317 159.074 122.153L162.542 124.147ZM167.841 110.915C169.08 106.27 169.708 101.796 169.708 97.5H165.708C165.708 101.404 165.137 105.53 163.976 109.885L167.841 110.915ZM169.708 97.5C169.708 92.7088 169.031 87.972 167.68 83.2949L163.837 84.4051C165.086 88.728 165.708 93.0912 165.708 97.5H169.708ZM167.693 83.3452C166.445 78.5575 164.565 74.1658 162.049 70.182L158.667 72.318C160.951 75.9342 162.672 79.9425 163.823 84.3548L167.693 83.3452ZM162.049 70.182C159.508 66.1588 156.362 62.8964 152.607 60.4286L150.41 63.7714C153.654 65.9036 156.408 68.7411 158.667 72.318L162.049 70.182ZM152.607 60.4286C148.749 57.8933 144.309 56.65 139.358 56.65V60.65C143.608 60.65 147.268 61.7067 150.41 63.7714L152.607 60.4286ZM139.358 56.65C134.101 56.65 129.441 57.9976 125.467 60.7573L127.749 64.0427C130.975 61.8024 134.816 60.65 139.358 60.65V56.65ZM125.499 60.7359C121.625 63.3184 118.468 66.7537 116.024 71.0031L119.492 72.9969C121.649 69.2463 124.391 66.2816 127.718 64.0641L125.499 60.7359ZM116.035 70.984C113.641 75.045 111.821 79.4141 110.576 84.0847L114.441 85.1153C115.595 80.7859 117.276 76.7549 119.481 73.016L116.035 70.984ZM110.565 84.1251C109.432 88.7608 108.858 93.2208 108.858 97.5H112.858C112.858 93.5791 113.384 89.4392 114.451 85.0749L110.565 84.1251ZM243.055 150H241.055V152H243.055V150ZM243.055 124.2H245.055V122.2H243.055V124.2ZM195.505 124.2H193.505V126.2H195.505V124.2ZM195.505 109.5L193.942 108.253L193.505 108.8V109.5H195.505ZM248.155 43.5V41.5H247.192L246.592 42.2528L248.155 43.5ZM259.555 43.5H261.555V41.5H259.555V43.5ZM259.555 109.35H257.555V111.35H259.555V109.35ZM272.755 109.35H274.755V107.35H272.755V109.35ZM272.755 124.2V126.2H274.755V124.2H272.755ZM259.555 124.2V122.2H257.555V124.2H259.555ZM259.555 150V152H261.555V150H259.555ZM212.305 109.35L210.742 108.103L208.151 111.35H212.305V109.35ZM244.855 109.35V111.35H246.855V109.35H244.855ZM244.855 68.55H246.855V62.8361L243.292 67.3027L244.855 68.55ZM245.055 150V124.2H241.055V150H245.055ZM243.055 122.2H195.505V126.2H243.055V122.2ZM197.505 124.2V109.5H193.505V124.2H197.505ZM197.069 110.747L249.719 44.7472L246.592 42.2528L193.942 108.253L197.069 110.747ZM248.155 45.5H259.555V41.5H248.155V45.5ZM257.555 43.5V109.35H261.555V43.5H257.555ZM259.555 111.35H272.755V107.35H259.555V111.35ZM270.755 109.35V124.2H274.755V109.35H270.755ZM272.755 122.2H259.555V126.2H272.755V122.2ZM257.555 124.2V150H261.555V124.2H257.555ZM259.555 148H243.055V152H259.555V148ZM212.305 111.35H244.855V107.35H212.305V111.35ZM246.855 109.35V68.55H242.855V109.35H246.855ZM243.292 67.3027L210.742 108.103L213.868 110.597L246.419 69.7973L243.292 67.3027Z" fill="#273C8D" mask="url(#path-4-outside-1_4226_18769)"/>
</svg>
