<svg width="28" height="28" viewBox="0 0 28 28" fill="none" xmlns="http://www.w3.org/2000/svg">
<path d="M8.16439 26H19.836C22.5227 26 24.7107 23.8362 24.7107 21.175V5.42495C24.7107 2.76369 22.5227 0.599951 19.836 0.599951H8.16439C5.47768 0.599951 3.28965 2.76369 3.28965 5.42495V21.175C3.28965 23.8362 5.47767 26 8.16439 26ZM4.5507 5.42495C4.5507 3.45466 6.17079 1.84995 8.16439 1.84995H19.836C21.8296 1.84995 23.4496 3.45466 23.4496 5.42495V21.175C23.4496 23.1452 21.8296 24.75 19.836 24.75H8.16439C6.17079 24.75 4.5507 23.1452 4.5507 21.175V5.42495ZM20.4665 6.47495C20.4665 6.12894 20.1831 5.84995 19.836 5.84995H13.4696C13.1226 5.84995 12.8391 6.12894 12.8391 6.47495C12.8391 6.82096 13.1226 7.09995 13.4696 7.09995H19.836C20.1831 7.09995 20.4665 6.82096 20.4665 6.47495ZM20.4665 12.775C20.4665 12.4289 20.1831 12.15 19.836 12.15H13.4696C13.1226 12.15 12.8391 12.4289 12.8391 12.775C12.8391 13.121 13.1226 13.4 13.4696 13.4H19.836C20.1831 13.4 20.4665 13.121 20.4665 12.775ZM20.4665 19.075C20.4665 18.7289 20.1831 18.4499 19.836 18.4499H13.4696C13.1226 18.4499 12.8391 18.7289 12.8391 19.075C12.8391 19.421 13.1226 19.7 13.4696 19.7H19.836C20.1831 19.7 20.4665 19.421 20.4665 19.075ZM8.16439 8.14995H10.2865C10.6336 8.14995 10.917 7.87096 10.917 7.52495V5.42495C10.917 5.07894 10.6336 4.79995 10.2865 4.79995H8.16439C7.8173 4.79995 7.53386 5.07894 7.53386 5.42495V7.52495C7.53386 7.87096 7.8173 8.14995 8.16439 8.14995ZM9.65596 6.04995V6.89995H8.79491V6.04995H9.65596ZM8.16439 14.45H10.2865C10.6336 14.45 10.917 14.171 10.917 13.825V11.725C10.917 11.3789 10.6336 11.0999 10.2865 11.0999H8.16439C7.8173 11.0999 7.53386 11.3789 7.53386 11.725V13.825C7.53386 14.171 7.8173 14.45 8.16439 14.45ZM9.65596 12.35V13.2H8.79491V12.35H9.65596ZM8.16439 20.75H10.2865C10.6336 20.75 10.917 20.471 10.917 20.125V18.025C10.917 17.6789 10.6336 17.4 10.2865 17.4H8.16439C7.8173 17.4 7.53386 17.6789 7.53386 18.025V20.125C7.53386 20.471 7.8173 20.75 8.16439 20.75ZM9.65596 18.65V19.5H8.79491V18.65H9.65596Z" fill="#273C8D" stroke="#273C8D" stroke-width="0.2"/>
</svg>
