<svg width="20" height="21" fill="none" xmlns="http://www.w3.org/2000/svg"><path d="M18.75 15.5a1.25 1.25 0 01-1.25 1.25h-15a1.25 1.25 0 01-1.25-1.25V8A1.25 1.25 0 012.5 6.75h1.465a3.75 3.75 0 002.65-1.099l1.037-1.035a1.25 1.25 0 01.882-.366h2.93c.331 0 .65.132.883.366l1.036 1.035a3.75 3.75 0 002.652 1.099H17.5A1.25 1.25 0 0118.75 8v7.5zM2.5 5.5A2.5 2.5 0 000 8v7.5A2.5 2.5 0 002.5 18h15a2.5 2.5 0 002.5-2.5V8a2.5 2.5 0 00-2.5-2.5h-1.465a2.5 2.5 0 01-1.768-.732l-1.034-1.035A2.5 2.5 0 0011.464 3h-2.93a2.5 2.5 0 00-1.768.732L5.732 4.768a2.5 2.5 0 01-1.767.733H2.5z" fill="#EAEAEA"/><path d="M10 14.25A3.125 3.125 0 1110 8a3.125 3.125 0 010 6.25zm0 1.25a4.375 4.375 0 100-8.75 4.375 4.375 0 000 8.75zM3.75 8.625a.625.625 0 11-1.25 0 .625.625 0 011.25 0z" fill="#EAEAEA"/></svg>