<svg width="20" height="21" viewBox="0 0 20 21" fill="none" xmlns="http://www.w3.org/2000/svg">
<g clip-path="url(#clip0_4606_17326)">
<path d="M10 19.25C7.67936 19.25 5.45376 18.3281 3.81282 16.6872C2.17187 15.0462 1.25 12.8206 1.25 10.5C1.25 8.17936 2.17187 5.95376 3.81282 4.31282C5.45376 2.67187 7.67936 1.75 10 1.75C12.3206 1.75 14.5462 2.67187 16.1872 4.31282C17.8281 5.95376 18.75 8.17936 18.75 10.5C18.75 12.8206 17.8281 15.0462 16.1872 16.6872C14.5462 18.3281 12.3206 19.25 10 19.25ZM10 20.5C12.6522 20.5 15.1957 19.4464 17.0711 17.5711C18.9464 15.6957 20 13.1522 20 10.5C20 7.84784 18.9464 5.3043 17.0711 3.42893C15.1957 1.55357 12.6522 0.5 10 0.5C7.34784 0.5 4.8043 1.55357 2.92893 3.42893C1.05357 5.3043 0 7.84784 0 10.5C0 13.1522 1.05357 15.6957 2.92893 17.5711C4.8043 19.4464 7.34784 20.5 10 20.5Z" fill="#CB333D"/>
<path d="M5.8075 6.3075C5.86556 6.2493 5.93453 6.20312 6.01046 6.17161C6.08639 6.1401 6.16779 6.12388 6.25 6.12388C6.33221 6.12388 6.41361 6.1401 6.48954 6.17161C6.56547 6.20312 6.63444 6.2493 6.6925 6.3075L10 9.61625L13.3075 6.3075C13.3656 6.24939 13.4346 6.20329 13.5105 6.17185C13.5864 6.1404 13.6678 6.12421 13.75 6.12421C13.8322 6.12421 13.9136 6.1404 13.9895 6.17185C14.0654 6.20329 14.1344 6.24939 14.1925 6.3075C14.2506 6.36561 14.2967 6.4346 14.3282 6.51052C14.3596 6.58644 14.3758 6.66782 14.3758 6.75C14.3758 6.83218 14.3596 6.91356 14.3282 6.98948C14.2967 7.0654 14.2506 7.13439 14.1925 7.1925L10.8837 10.5L14.1925 13.8075C14.2506 13.8656 14.2967 13.9346 14.3282 14.0105C14.3596 14.0864 14.3758 14.1678 14.3758 14.25C14.3758 14.3322 14.3596 14.4136 14.3282 14.4895C14.2967 14.5654 14.2506 14.6344 14.1925 14.6925C14.1344 14.7506 14.0654 14.7967 13.9895 14.8282C13.9136 14.8596 13.8322 14.8758 13.75 14.8758C13.6678 14.8758 13.5864 14.8596 13.5105 14.8282C13.4346 14.7967 13.3656 14.7506 13.3075 14.6925L10 11.3837L6.6925 14.6925C6.63439 14.7506 6.5654 14.7967 6.48948 14.8282C6.41356 14.8596 6.33218 14.8758 6.25 14.8758C6.16782 14.8758 6.08644 14.8596 6.01052 14.8282C5.9346 14.7967 5.86561 14.7506 5.8075 14.6925C5.74939 14.6344 5.70329 14.5654 5.67185 14.4895C5.6404 14.4136 5.62421 14.3322 5.62421 14.25C5.62421 14.1678 5.6404 14.0864 5.67185 14.0105C5.70329 13.9346 5.74939 13.8656 5.8075 13.8075L9.11625 10.5L5.8075 7.1925C5.7493 7.13444 5.70312 7.06547 5.67161 6.98954C5.6401 6.91361 5.62388 6.83221 5.62388 6.75C5.62388 6.66779 5.6401 6.58639 5.67161 6.51046C5.70312 6.43453 5.7493 6.36556 5.8075 6.3075Z" fill="#CB333D"/>
</g>
<defs>
<clipPath id="clip0_4606_17326">
<rect width="20" height="20" fill="white" transform="translate(0 0.5)"/>
</clipPath>
</defs>
</svg>
