<svg width="24" height="24" viewBox="0 0 24 24" fill="none" xmlns="http://www.w3.org/2000/svg">
<path fill-rule="evenodd" clip-rule="evenodd" d="M11.4699 6.96888C11.5396 6.89903 11.6224 6.84362 11.7135 6.80581C11.8046 6.768 11.9023 6.74854 12.0009 6.74854C12.0996 6.74854 12.1973 6.768 12.2884 6.80581C12.3795 6.84362 12.4623 6.89903 12.5319 6.96888L21.5319 15.9689C21.6728 16.1097 21.7519 16.3007 21.7519 16.4999C21.7519 16.699 21.6728 16.89 21.5319 17.0309C21.3911 17.1717 21.2001 17.2508 21.0009 17.2508C20.8018 17.2508 20.6108 17.1717 20.4699 17.0309L12.0009 8.56038L3.53195 17.0309C3.39112 17.1717 3.20011 17.2508 3.00095 17.2508C2.80178 17.2508 2.61078 17.1717 2.46995 17.0309C2.32912 16.89 2.25 16.699 2.25 16.4999C2.25 16.3007 2.32912 16.1097 2.46995 15.9689L11.4699 6.96888Z" fill="#FAFAFA"/>
</svg>
