<svg width="24" height="24" viewBox="0 0 24 24" fill="none" xmlns="http://www.w3.org/2000/svg">
<path fill-rule="evenodd" clip-rule="evenodd" d="M2.46936 6.96912C2.53903 6.89927 2.6218 6.84386 2.71291 6.80605C2.80403 6.76824 2.90171 6.74878 3.00036 6.74878C3.09902 6.74878 3.1967 6.76824 3.28781 6.80605C3.37893 6.84386 3.4617 6.89927 3.53136 6.96912L12.0004 15.4396L20.4694 6.96912C20.5391 6.89939 20.6219 6.84407 20.713 6.80633C20.8041 6.7686 20.9017 6.74917 21.0004 6.74917C21.099 6.74917 21.1966 6.7686 21.2877 6.80633C21.3788 6.84407 21.4616 6.89939 21.5314 6.96912C21.6011 7.03885 21.6564 7.12164 21.6941 7.21274C21.7319 7.30385 21.7513 7.4015 21.7513 7.50012C21.7513 7.59874 21.7319 7.69639 21.6941 7.7875C21.6564 7.8786 21.6011 7.96139 21.5314 8.03112L12.5314 17.0311C12.4617 17.101 12.3789 17.1564 12.2878 17.1942C12.1967 17.232 12.099 17.2515 12.0004 17.2515C11.9017 17.2515 11.804 17.232 11.7129 17.1942C11.6218 17.1564 11.539 17.101 11.4694 17.0311L2.46936 8.03112C2.39952 7.96145 2.34411 7.87869 2.3063 7.78757C2.26849 7.69645 2.24902 7.59877 2.24902 7.50012C2.24902 7.40147 2.26849 7.30379 2.3063 7.21267C2.34411 7.12155 2.39952 7.03879 2.46936 6.96912Z" fill="#1D1D1D"/>
</svg>
