<svg width="80" height="80" fill="none" xmlns="http://www.w3.org/2000/svg"><g clip-path="url(#clip0_2922_9456)"><path d="M75.41 30.867L70 25.653V11.667C70 5.233 64.767 0 58.333 0H21.667C15.233 0 10 5.233 10 11.667v13.986L4.587 30.87A15.075 15.075 0 000 41.67v23.333c0 8.27 6.73 15 15 15h50c8.27 0 15-6.73 15-15V41.67c0-4.053-1.673-7.99-4.59-10.803zm-2.31 2.4c.307.296.597.606.867.933l-3.964 3.963v-7.886l3.1 2.986-.003.004zm-59.767-21.6c0-4.594 3.74-8.334 8.334-8.334h36.666c4.597 0 8.334 3.74 8.334 8.334V41.5L48.25 59.917c-4.403 4.406-12.09 4.41-16.5 0L13.333 41.5V11.667zm-6.43 21.6L10 30.28v7.883L6.037 34.2c.27-.327.56-.637.866-.933zM76.667 65c0 6.433-5.234 11.667-11.667 11.667H15C8.567 76.667 3.333 71.433 3.333 65V41.667c0-1.564.32-3.107.924-4.534l25.136 25.14A14.901 14.901 0 0040 66.667a14.9 14.9 0 0010.607-4.394l25.14-25.14c.6 1.424.923 2.967.923 4.534L76.667 65zM23.333 18.333c0-.92.747-1.666 1.667-1.666h30A1.667 1.667 0 0155 20H25c-.92 0-1.667-.747-1.667-1.667zm0 13.334c0-.92.747-1.667 1.667-1.667h23.333a1.667 1.667 0 010 3.333H25c-.92 0-1.667-.746-1.667-1.666z" fill="#273C8D"/></g><defs><clipPath id="clip0_2922_9456"><path fill="#fff" d="M0 0h80v80H0z"/></clipPath></defs></svg>