<svg width="20" height="20" viewBox="0 0 20 20" fill="none" xmlns="http://www.w3.org/2000/svg">
<g clip-path="url(#clip0_6231_19165)">
<path d="M5.50714 5.04954C5.74787 3.86314 6.93353 3.06896 8.15442 3.28494C9.06035 3.44318 9.80504 4.18711 9.96402 5.09454C10.132 6.04921 9.6783 7.00463 8.83462 7.47034C8.29691 7.76657 8.12443 7.97055 8.12443 8.31102C8.12443 8.518 7.95644 8.68599 7.74946 8.68599C7.54247 8.68599 7.37449 8.518 7.37449 8.31102C7.37449 7.41784 8.08918 7.02488 8.4724 6.8134C9.04385 6.49842 9.33932 5.87447 9.22458 5.22428C9.11884 4.62208 8.62613 4.12862 8.02468 4.02288C7.199 3.87889 6.40257 4.40685 6.24208 5.19803C6.20084 5.40126 6.0036 5.5325 5.79962 5.49126C5.59639 5.44926 5.4659 5.25203 5.50639 5.04879L5.50714 5.04954Z" fill="#273C8D"/>
<path d="M8.49889 10.7492C8.49889 11.1632 8.16292 11.4991 7.74896 11.4991C7.33499 11.4991 6.99902 11.1632 6.99902 10.7492C6.99902 10.3352 7.33499 9.99927 7.74896 9.99927C8.16292 9.99927 8.49889 10.3352 8.49889 10.7492Z" fill="#273C8D"/>
<path fill-rule="evenodd" clip-rule="evenodd" d="M15.6238 3.99975H14.4779C14.2904 2.31464 12.858 1 11.1242 1H4.37472C2.51412 1 1 2.51412 1 4.37472V14.7644C1 15.2203 1.24973 15.6388 1.65245 15.854C1.83618 15.9523 2.03641 16.0002 2.23665 16.0002C2.47588 16.0002 2.71436 15.9305 2.92134 15.7933L5.56412 14.0309C5.87084 15.578 7.23873 16.7479 8.87434 16.7479H14.0107L17.0779 18.793C17.2841 18.931 17.5234 19 17.7626 19C17.9628 19 18.1631 18.952 18.3461 18.8538C18.7488 18.6378 18.9985 18.2201 18.9985 17.7641V7.37447C18.9985 5.51387 17.4844 3.99975 15.6238 3.99975ZM2.50512 15.1701C2.35364 15.2721 2.1669 15.2803 2.00642 15.1933C1.84593 15.1078 1.74994 14.9473 1.74994 14.7651V4.37472C1.74994 2.92734 2.92734 1.74994 4.37472 1.74994H11.1242C12.5715 1.74994 13.7489 2.92734 13.7489 4.37472V10.3742C13.7489 11.8216 12.5715 12.999 11.1242 12.999H5.87459C5.74335 12.999 5.66611 13.062 5.66311 13.0642L2.50512 15.1701ZM18.2486 17.7649C18.2486 17.9471 18.1526 18.1076 17.9921 18.1931C17.8293 18.2801 17.6456 18.2703 17.4926 18.1698L14.3316 16.0617C14.2701 16.0205 14.1974 15.9987 14.1239 15.9987H8.87434C7.55445 15.9987 6.45879 15.0193 6.27656 13.7489H11.1242C12.9848 13.7489 14.4989 12.2348 14.4989 10.3742V4.74969H15.6238C17.0712 4.74969 18.2486 5.92709 18.2486 7.37447V17.7649Z" fill="#273C8D"/>
<mask id="mask0_6231_19165" style="mask-type:luminance" maskUnits="userSpaceOnUse" x="0" y="0" width="20" height="20">
<path d="M20 0H0V20H20V0Z" fill="white"/>
<path d="M5.50714 5.04954C5.74787 3.86314 6.93353 3.06896 8.15442 3.28494C9.06035 3.44318 9.80504 4.18711 9.96402 5.09454C10.132 6.04921 9.6783 7.00463 8.83462 7.47034C8.29691 7.76657 8.12443 7.97055 8.12443 8.31102C8.12443 8.518 7.95644 8.68599 7.74946 8.68599C7.54247 8.68599 7.37449 8.518 7.37449 8.31102C7.37449 7.41784 8.08918 7.02488 8.4724 6.8134C9.04385 6.49842 9.33932 5.87447 9.22458 5.22428C9.11884 4.62208 8.62613 4.12862 8.02468 4.02288C7.199 3.87889 6.40257 4.40685 6.24208 5.19803C6.20084 5.40126 6.0036 5.5325 5.79962 5.49126C5.59639 5.44926 5.4659 5.25203 5.50639 5.04879L5.50714 5.04954Z" fill="black"/>
<path d="M8.49889 10.7492C8.49889 11.1632 8.16292 11.4991 7.74896 11.4991C7.33499 11.4991 6.99902 11.1632 6.99902 10.7492C6.99902 10.3352 7.33499 9.99927 7.74896 9.99927C8.16292 9.99927 8.49889 10.3352 8.49889 10.7492Z" fill="black"/>
<path fill-rule="evenodd" clip-rule="evenodd" d="M15.6238 3.99975H14.4779C14.2904 2.31464 12.858 1 11.1242 1H4.37472C2.51412 1 1 2.51412 1 4.37472V14.7644C1 15.2203 1.24973 15.6388 1.65245 15.854C1.83618 15.9523 2.03641 16.0002 2.23665 16.0002C2.47588 16.0002 2.71436 15.9305 2.92134 15.7933L5.56412 14.0309C5.87084 15.578 7.23873 16.7479 8.87434 16.7479H14.0107L17.0779 18.793C17.2841 18.931 17.5234 19 17.7626 19C17.9628 19 18.1631 18.952 18.3461 18.8538C18.7488 18.6378 18.9985 18.2201 18.9985 17.7641V7.37447C18.9985 5.51387 17.4844 3.99975 15.6238 3.99975ZM2.50512 15.1701C2.35364 15.2721 2.1669 15.2803 2.00642 15.1933C1.84593 15.1078 1.74994 14.9473 1.74994 14.7651V4.37472C1.74994 2.92734 2.92734 1.74994 4.37472 1.74994H11.1242C12.5715 1.74994 13.7489 2.92734 13.7489 4.37472V10.3742C13.7489 11.8216 12.5715 12.999 11.1242 12.999H5.87459C5.74335 12.999 5.66611 13.062 5.66311 13.0642L2.50512 15.1701ZM18.2486 17.7649C18.2486 17.9471 18.1526 18.1076 17.9921 18.1931C17.8293 18.2801 17.6456 18.2703 17.4926 18.1698L14.3316 16.0617C14.2701 16.0205 14.1974 15.9987 14.1239 15.9987H8.87434C7.55445 15.9987 6.45879 15.0193 6.27656 13.7489H11.1242C12.9848 13.7489 14.4989 12.2348 14.4989 10.3742V4.74969H15.6238C17.0712 4.74969 18.2486 5.92709 18.2486 7.37447V17.7649Z" fill="black"/>
</mask>
<g mask="url(#mask0_6231_19165)">
<path d="M14.4777 3.9998L14.2789 4.02192L14.2987 4.1998H14.4777V3.9998ZM5.56392 14.0309L5.7601 13.992L5.70191 13.6985L5.45296 13.8645L5.56392 14.0309ZM14.0105 16.7479L14.1214 16.5815L14.071 16.5479H14.0105V16.7479ZM2.00622 15.1933L2.10153 15.0175L2.10025 15.0168L2.00622 15.1933ZM5.66291 13.0642L5.77404 13.2309L5.78291 13.2242L5.66291 13.0642ZM17.4924 18.1698L17.3815 18.3363L17.3826 18.337L17.4924 18.1698ZM6.27636 13.7489V13.5489H6.04562L6.07839 13.7773L6.27636 13.7489ZM14.4987 4.74974V4.54974H14.2987V4.74974H14.4987ZM5.50692 5.04971L5.3655 5.19113L5.62887 5.4545L5.70293 5.08948L5.50692 5.04971ZM5.50617 5.04896L5.6476 4.90754L5.38312 4.64307L5.31003 5.00988L5.50617 5.04896ZM15.6236 3.7998H14.4777V4.1998H15.6236V3.7998ZM14.6765 3.97768C14.4778 2.19259 12.961 0.800049 11.124 0.800049V1.20005C12.7546 1.20005 14.1025 2.43679 14.2789 4.02192L14.6765 3.97768ZM11.124 0.800049H4.37452V1.20005H11.124V0.800049ZM4.37452 0.800049C2.40347 0.800049 0.799805 2.40372 0.799805 4.37477H1.1998C1.1998 2.62463 2.62438 1.20005 4.37452 1.20005V0.800049ZM0.799805 4.37477V14.7644H1.1998V4.37477H0.799805ZM0.799805 14.7644C0.799805 15.2938 1.08993 15.7803 1.55797 16.0304L1.74655 15.6776C1.40916 15.4973 1.1998 15.1468 1.1998 14.7644H0.799805ZM1.55797 16.0304C1.77139 16.1445 2.00408 16.2002 2.23645 16.2002V15.8002C2.06835 15.8002 1.9006 15.76 1.74655 15.6776L1.55797 16.0304ZM2.23645 16.2002C2.51457 16.2002 2.79156 16.1192 3.03166 15.96L2.81062 15.6266C2.63675 15.7419 2.43678 15.8002 2.23645 15.8002V16.2002ZM3.03166 15.96L5.67488 14.1973L5.45296 13.8645L2.81062 15.6266L3.03166 15.96ZM5.36774 14.0698C5.69264 15.7086 7.14109 16.948 8.87414 16.948V16.5479C7.33597 16.5479 6.04865 15.4475 5.7601 13.992L5.36774 14.0698ZM8.87414 16.948H14.0105V16.5479H8.87414V16.948ZM13.8995 16.9144L16.9668 18.9594L17.1889 18.6269L14.1214 16.5815L13.8995 16.9144ZM16.9668 18.9594C17.207 19.1202 17.4849 19.2001 17.7624 19.2001V18.8C17.5615 18.8 17.3612 18.7422 17.1889 18.6269L16.9668 18.9594ZM17.7624 19.2001C17.9947 19.2001 18.2276 19.1444 18.4405 19.0301L18.2513 18.6775C18.0983 18.7596 17.9306 18.8 17.7624 18.8V19.2001ZM18.4405 19.0301C18.9081 18.7793 19.1983 18.2938 19.1983 17.7641H18.7983C18.7983 18.1463 18.5891 18.4963 18.2513 18.6775L18.4405 19.0301ZM19.1983 17.7641V7.37452H18.7983V17.7641H19.1983ZM19.1983 7.37452C19.1983 5.40347 17.5946 3.7998 15.6236 3.7998V4.1998C17.3737 4.1998 18.7983 5.62438 18.7983 7.37452H19.1983ZM2.39397 15.0037C2.30477 15.0637 2.19709 15.0693 2.10153 15.0175L1.91091 15.3691C2.13631 15.4913 2.40285 15.4799 2.61662 15.336L2.39397 15.0037ZM2.10025 15.0168C2.00531 14.9662 1.94974 14.8738 1.94974 14.7651H1.54974C1.54974 15.0209 1.68615 15.2494 1.91218 15.3698L2.10025 15.0168ZM1.94974 14.7651V4.37477H1.54974V14.7651H1.94974ZM1.94974 4.37477C1.94974 3.03785 3.0376 1.94999 4.37452 1.94999V1.54999C2.81668 1.54999 1.54974 2.81693 1.54974 4.37477H1.94974ZM4.37452 1.94999H11.124V1.54999H4.37452V1.94999ZM11.124 1.94999C12.4609 1.94999 13.5487 3.03785 13.5487 4.37477H13.9487C13.9487 2.81693 12.6818 1.54999 11.124 1.54999V1.94999ZM13.5487 4.37477V10.3742H13.9487V4.37477H13.5487ZM13.5487 10.3742C13.5487 11.7111 12.4609 12.799 11.124 12.799V13.199C12.6818 13.199 13.9487 11.9321 13.9487 10.3742H13.5487ZM11.124 12.799H5.87439V13.199H11.124V12.799ZM5.87439 12.799C5.77616 12.799 5.69641 12.8227 5.63938 12.848C5.61094 12.8606 5.588 12.8737 5.57089 12.8847C5.55341 12.8959 5.54088 12.9058 5.54292 12.9042L5.78291 13.2242C5.78434 13.2232 5.78551 13.2223 5.7856 13.2222C5.78552 13.2222 5.78577 13.2221 5.7856 13.2222C5.78531 13.2224 5.78551 13.2222 5.78664 13.2215C5.78896 13.22 5.7941 13.217 5.80175 13.2136C5.8169 13.2068 5.84139 13.199 5.87439 13.199V12.799ZM5.55195 12.8978L2.39397 15.0037L2.61662 15.336L5.77404 13.2309L5.55195 12.8978ZM18.0484 17.7649C18.0484 17.8736 17.9928 17.966 17.8979 18.0166L18.0859 18.3696C18.3119 18.2492 18.4484 18.0206 18.4484 17.7649H18.0484ZM17.8979 18.0166C17.8006 18.0686 17.6948 18.0636 17.6022 18.0028L17.3826 18.337C17.596 18.4771 17.8577 18.4916 18.0859 18.3696L17.8979 18.0166ZM17.6034 18.0035L14.4424 15.8954L14.22 16.2278L17.3815 18.3363L17.6034 18.0035ZM14.4424 15.8954C14.3475 15.8318 14.2363 15.7987 14.1237 15.7987V16.1987C14.1581 16.1987 14.1919 16.209 14.22 16.2278L14.4424 15.8954ZM14.1237 15.7987H8.87414V16.1987H14.1237V15.7987ZM8.87414 15.7987C7.65525 15.7987 6.64266 14.894 6.47433 13.7205L6.07839 13.7773C6.27453 15.1447 7.45326 16.1987 8.87414 16.1987V15.7987ZM6.27636 13.9489H11.124V13.5489H6.27636V13.9489ZM11.124 13.9489C13.095 13.9489 14.6987 12.3453 14.6987 10.3742H14.2987C14.2987 12.1244 12.8741 13.5489 11.124 13.5489V13.9489ZM14.6987 10.3742V4.74974H14.2987V10.3742H14.6987ZM14.4987 4.94974H15.6236V4.54974H14.4987V4.94974ZM15.6236 4.94974C16.9605 4.94974 18.0484 6.0376 18.0484 7.37452H18.4484C18.4484 5.81668 17.1814 4.54974 15.6236 4.54974V4.94974ZM18.0484 7.37452V17.7649H18.4484V7.37452H18.0484ZM5.70293 5.08948C5.92141 4.01273 7.00195 3.28438 8.11936 3.48205L8.18904 3.08817C6.86466 2.85388 5.57301 3.71383 5.31003 5.00988L5.70293 5.08948ZM8.11936 3.48205C8.94223 3.62578 9.62235 4.30478 9.7668 5.12922L10.1608 5.06019C9.98728 4.06979 9.17802 3.26092 8.18904 3.08817L8.11936 3.48205ZM9.7668 5.12922C9.92011 6.00052 9.50589 6.8714 8.73774 7.29542L8.9309 7.64569C9.85011 7.13828 10.3434 6.09823 10.1608 5.06019L9.7668 5.12922ZM8.73774 7.29542C8.46474 7.44582 8.26006 7.5852 8.12489 7.74518C7.98044 7.91614 7.92421 8.09963 7.92421 8.31119H8.32421C8.32421 8.18228 8.35421 8.09354 8.43043 8.00334C8.51593 7.90215 8.66619 7.79152 8.9309 7.64569L8.73774 7.29542ZM7.92421 8.31119C7.92421 8.40772 7.84576 8.48616 7.74924 8.48616V8.88616C8.06668 8.88616 8.32421 8.62863 8.32421 8.31119H7.92421ZM7.74924 8.48616C7.65271 8.48616 7.57427 8.40772 7.57427 8.31119H7.17427C7.17427 8.62863 7.4318 8.88616 7.74924 8.88616V8.48616ZM7.57427 8.31119C7.57427 7.54783 8.17506 7.20596 8.56881 6.98867L8.37563 6.63841C8.00295 6.84408 7.17427 7.2882 7.17427 8.31119H7.57427ZM8.56881 6.98867C9.21634 6.63176 9.5507 5.92282 9.42132 5.18969L9.02738 5.25904C9.12748 5.82631 8.87101 6.36537 8.37563 6.63841L8.56881 6.98867ZM9.42132 5.18969C9.30105 4.50477 8.74362 3.94642 8.05909 3.82607L7.98983 4.22003C8.50821 4.31116 8.93616 4.73956 9.02738 5.25904L9.42132 5.18969ZM8.05909 3.82607C7.13239 3.66447 6.229 4.25554 6.04585 5.15844L6.43787 5.23798C6.5757 4.55851 7.26517 4.09366 7.98983 4.22003L8.05909 3.82607ZM6.04585 5.15844C6.02654 5.25359 5.9347 5.31474 5.83904 5.29539L5.75893 5.68729C6.07124 5.75044 6.37469 5.54929 6.43787 5.23798L6.04585 5.15844ZM5.83904 5.29539C5.74349 5.27565 5.68329 5.18355 5.70232 5.08805L5.31003 5.00988C5.24807 5.32084 5.44801 5.62304 5.75893 5.68729L5.83904 5.29539ZM5.36475 5.19038L5.3655 5.19113L5.64835 4.90829L5.6476 4.90754L5.36475 5.19038ZM8.29917 10.7492C8.29917 11.0527 8.05275 11.2991 7.74924 11.2991V11.6991C8.27366 11.6991 8.69917 11.2736 8.69917 10.7492H8.29917ZM7.74924 11.2991C7.44573 11.2991 7.1993 11.0527 7.1993 10.7492H6.7993C6.7993 11.2736 7.22481 11.6991 7.74924 11.6991V11.2991ZM7.1993 10.7492C7.1993 10.4457 7.44573 10.1992 7.74924 10.1992V9.7993C7.22481 9.7993 6.7993 10.2248 6.7993 10.7492H7.1993ZM7.74924 10.1992C8.05275 10.1992 8.29917 10.4457 8.29917 10.7492H8.69917C8.69917 10.2248 8.27366 9.7993 7.74924 9.7993V10.1992Z" fill="#273C8D"/>
</g>
</g>
<defs>
<clipPath id="clip0_6231_19165">
<rect width="20" height="20" fill="white"/>
</clipPath>
</defs>
</svg>
