<svg width="28" height="28" viewBox="0 0 28 28" fill="none" xmlns="http://www.w3.org/2000/svg">
<path d="M19.3317 23.3005L19.313 23.2244H19.3102C18.6852 20.8583 16.464 19.1504 13.9983 19.1504C11.5062 19.1504 9.26405 20.8949 8.66699 23.3003L8.66696 23.3004C8.58447 23.6341 8.78803 23.9742 9.12338 24.0567L9.12398 24.0569C9.45666 24.1366 9.7967 23.9363 9.88061 23.6006L9.88064 23.6005C10.3409 21.7472 12.0729 20.4004 13.9993 20.4004C15.9258 20.4004 17.6578 21.7472 18.118 23.6005L18.1181 23.6006C18.1893 23.8854 18.4442 24.0754 18.7243 24.0754C18.7748 24.0754 18.8248 24.0691 18.8751 24.0568L18.8753 24.0567C19.2106 23.9742 19.4142 23.6352 19.3317 23.3005ZM21.8754 5.50039H17.2504V4.55039C17.2504 2.75846 15.7923 1.30039 14.0004 1.30039C12.2085 1.30039 10.7504 2.75846 10.7504 4.55039V5.50039H6.12539C3.46511 5.50039 1.30039 7.66511 1.30039 10.3254V21.8754C1.30039 24.5357 3.46511 26.7004 6.12539 26.7004H21.8754C24.5357 26.7004 26.7004 24.5357 26.7004 21.8754V10.3254C26.7004 7.66511 24.5357 5.50039 21.8754 5.50039ZM12.0004 4.55039C12.0004 3.44747 12.8975 2.55039 14.0004 2.55039C15.1033 2.55039 16.0004 3.44747 16.0004 4.55039V8.22539C16.0004 8.45904 15.8098 8.65039 15.5754 8.65039H12.4254C12.191 8.65039 12.0004 8.45904 12.0004 8.22539V4.55039ZM25.4504 21.8754C25.4504 23.8467 23.8467 25.4504 21.8754 25.4504H6.12539C4.15412 25.4504 2.55039 23.8467 2.55039 21.8754V10.3254C2.55039 8.35412 4.15412 6.75039 6.12539 6.75039H10.7504V8.22539C10.7504 9.14897 11.5018 9.90039 12.4254 9.90039H15.5754C16.499 9.90039 17.2504 9.14897 17.2504 8.22539V6.75039H21.8754C23.8467 6.75039 25.4504 8.35412 25.4504 10.3254V21.8754ZM14.0004 18.3004C15.7923 18.3004 17.2504 16.8423 17.2504 15.0504C17.2504 13.2585 15.7923 11.8004 14.0004 11.8004C12.2085 11.8004 10.7504 13.2585 10.7504 15.0504C10.7504 16.8423 12.2085 18.3004 14.0004 18.3004ZM14.0004 13.0504C15.1033 13.0504 16.0004 13.9475 16.0004 15.0504C16.0004 16.1533 15.1033 17.0504 14.0004 17.0504C12.8975 17.0504 12.0004 16.1533 12.0004 15.0504C12.0004 13.9475 12.8975 13.0504 14.0004 13.0504Z" fill="#273C8D" stroke="#273C8D" stroke-width="0.2"/>
</svg>
