<svg width="28" height="28" viewBox="0 0 28 28" fill="none" xmlns="http://www.w3.org/2000/svg">
<mask id="path-1-outside-1_6224_4461" maskUnits="userSpaceOnUse" x="-0.364258" y="1.82617" width="29" height="24" fill="black">
<rect  x="-0.364258" y="1.82617" width="29" height="24"/>
<path fill-rule="evenodd" clip-rule="evenodd" d="M10.7926 7.09505C10.4702 7.26746 10.0032 7.29937 9.85756 7.37033C9.33007 7.63929 8.55576 8.39537 8.2082 8.89566C8.00461 9.24709 7.79605 10.3856 7.83145 10.9508C7.83945 11.1411 8.08664 11.4429 8.15639 11.6731L8.155 11.6747C7.52424 11.4537 7.43695 11.0925 6.84871 11.372C6.52527 11.482 6.17295 11.589 5.92856 11.7977C5.41912 12.307 5.56181 12.6886 4.82094 12.6357C4.31258 12.6007 3.81952 12.3747 3.31065 12.3547C2.43285 12.3391 2.03913 12.6963 2.16222 13.5735C2.26177 14.5657 2.49884 15.0108 2.68502 15.5566C3.01319 16.4386 2.71641 17.1125 2.77835 17.9507C2.7291 18.0282 2.62223 18.2097 2.5956 18.2551C1.46151 18.7305 -0.50409 19.7769 1.49427 20.7711C1.66509 20.8687 1.82119 20.9623 1.89982 21.1555C1.91535 21.973 0.623806 23.9483 2.51894 23.4874C3.24557 23.2958 3.55752 22.5929 4.20946 22.3484C5.12323 22.015 6.97323 22.1079 7.95461 22.1728C8.38273 22.2294 8.72672 22.4188 9.13692 22.529C9.62889 22.6552 10.1087 22.7028 10.5423 22.8035C10.827 22.8693 11.0996 22.9585 11.3725 23.1094C11.8584 23.4517 12.3106 23.7222 12.8299 23.8981C13.0229 23.9656 13.1396 24.0825 13.3195 24.1812C13.4767 24.232 13.5891 24.0887 13.7331 24.0286C13.9939 23.8939 14.2653 23.8071 14.5548 23.7784C16.0522 23.6114 15.6546 25.2607 17.0204 23.9157C17.1286 23.8331 17.2421 23.7578 17.3871 23.7964C17.6053 23.9381 17.6125 24.2349 17.7477 24.4678C18.1792 25.2581 18.6879 24.4186 18.8483 24.4467C20.7489 24.2152 20.3063 24.166 20.9931 25.0416C21.2232 25.3539 21.416 25.166 21.6263 25.034C22.7681 24.0415 21.0451 23.2954 22.0206 21.8082C22.364 21.0549 23.7995 21.398 24.4837 21.0232C25.2924 20.7749 24.6683 20.3671 24.5116 19.9665C24.5116 19.7525 24.6775 19.5115 24.6019 19.2925C24.2327 18.2045 24.2623 18.676 24.3303 17.846C24.3254 17.3948 23.911 17.236 23.5958 17.0419C22.9796 16.7563 23.547 16.3398 23.7021 16.3554C24.4262 16.4881 24.7005 17.0567 25.4316 16.7698C25.803 16.6454 26.075 16.3825 26.3812 16.1296C27.1866 15.5381 27.747 15.2568 26.9608 14.3377C25.6223 12.7156 25.6535 13.3618 24.891 13.2039C24.875 12.9481 25.0004 12.656 24.8897 12.3998C24.3167 11.5435 23.6101 11.9276 23.0458 10.8996C22.5322 10.2522 22.8564 10.0183 22.746 9.48889C22.6218 8.98943 22.0371 8.92516 21.9535 8.61957C21.9345 7.6964 22.4199 7.43222 21.9235 6.64246C21.8169 6.09999 22.1345 5.48273 21.7122 5.06406C21.5404 4.89627 20.2343 4.16355 19.7087 4.07714C19.1133 3.9877 18.7781 5.07744 18.2342 4.5116C17.9981 4.13969 17.9673 3.62984 17.6037 3.37208C16.8596 2.90051 16.4686 4.03484 16.1269 3.56057C15.8537 3.28502 15.6138 3.02077 15.2583 2.89259C13.9557 2.50472 13.4809 3.92989 12.7307 4.22036C12.1477 4.47446 11.4687 4.46673 10.9996 4.76861C10.2394 5.20518 9.87152 6.66462 10.7926 7.09505ZM19.6343 4.50939C19.9464 4.57376 20.5618 4.87229 20.952 5.08761C21.7309 5.46344 21.4776 5.64459 21.4623 6.44465C21.457 6.60975 21.4897 6.77173 21.5743 6.93028C21.9899 7.51193 21.2685 8.23947 21.5873 8.87893C21.6626 9.01921 21.7744 9.11973 21.911 9.21913C22.778 9.69234 21.9839 10.1042 22.5057 10.8801C23.3581 12.2176 23.5558 11.8968 24.3231 12.402C24.6385 12.5918 24.4313 12.8692 24.4518 13.174C24.4593 13.3584 24.5205 13.4913 24.6569 13.5738C25.8343 13.9307 25.2943 13.0973 26.5112 14.4795C27.1434 15.2022 26.9237 15.188 26.3111 15.631C25.8136 15.979 25.2836 16.6958 24.6347 16.2738C23.0988 15.2821 22.7936 16.7317 22.8722 16.8919C22.9804 17.291 23.4917 17.4442 23.7985 17.6826C24.0419 17.903 23.7181 18.4642 23.9328 18.7669C24.563 20.0168 23.6186 19.5955 24.387 20.5928C23.5308 20.9391 23.0093 20.7441 22.2491 21.0244C21.824 21.1824 21.6562 21.5305 21.4641 21.9483C20.7868 23.3858 22.1577 24.2037 21.3004 24.7264C20.8506 24.1197 20.7266 23.7556 19.9327 23.8868C18.415 24.0358 18.6962 24.0067 18.1935 24.359C17.872 23.6907 17.7077 23.0573 16.8884 23.478C16.6267 23.6237 16.3851 23.969 16.1861 24.0097C16.0085 23.9113 15.8013 23.6381 15.6182 23.5277C14.9416 23.1794 14.0507 23.3289 13.4046 23.7098C13.0771 23.4961 12.7194 23.3945 12.376 23.235C11.6763 22.8209 11.5084 22.6091 10.9051 22.4545C10.4565 22.3256 9.99079 22.2707 9.47599 22.1594C8.90979 22.0516 8.47881 21.787 7.92435 21.7295C6.91325 21.6684 4.91657 21.5974 4.00877 21.9575C3.10148 22.3363 2.9444 23.1712 1.93365 23.1032C1.91459 22.6989 2.11117 22.1877 2.23012 21.7644C2.92387 20.1316 0.30202 20.4148 1.32055 19.469C2.08492 18.8264 2.84849 18.754 2.98917 18.4579C3.0937 18.2658 3.16984 18.1955 3.22081 18.0422C3.20086 17.7122 3.20177 17.397 3.23726 17.089C3.4033 15.8731 3.04646 15.3375 2.79727 14.5737C2.40574 13.0097 2.43766 12.6462 3.62805 12.8344C6.03567 13.4928 5.63141 12.6014 6.27584 12.0802C6.55378 11.8891 6.92135 11.8226 7.2186 11.7041C7.50705 11.7839 7.75552 12.0654 8.09175 12.1075C8.91258 12.0751 8.52321 11.3475 8.27096 10.9389C8.22126 10.4585 8.40601 9.56975 8.56987 9.1345C10.2591 7.04084 10.4352 8.04987 11.2284 7.30217C11.3572 7.14497 11.3264 6.92913 11.1497 6.80443C10.9836 6.67813 10.8001 6.63606 10.7147 6.41954C10.5761 6.00636 10.884 5.35125 11.1915 5.17324C11.7588 4.79676 12.6326 4.88839 13.2576 4.41749C13.8676 3.98379 14.2709 3.06052 15.1189 3.30501C15.5564 3.4589 15.7822 3.96929 16.1562 4.10441C16.5712 4.23901 16.8918 3.7787 17.2246 3.69769C17.7622 3.67466 17.564 5.56544 18.9744 5.00694C19.2116 4.88897 19.3308 4.63966 19.6343 4.50939Z"/>
</mask>
<path fill-rule="evenodd" clip-rule="evenodd" d="M10.7926 7.09505C10.4702 7.26746 10.0032 7.29937 9.85756 7.37033C9.33007 7.63929 8.55576 8.39537 8.2082 8.89566C8.00461 9.24709 7.79605 10.3856 7.83145 10.9508C7.83945 11.1411 8.08664 11.4429 8.15639 11.6731L8.155 11.6747C7.52424 11.4537 7.43695 11.0925 6.84871 11.372C6.52527 11.482 6.17295 11.589 5.92856 11.7977C5.41912 12.307 5.56181 12.6886 4.82094 12.6357C4.31258 12.6007 3.81952 12.3747 3.31065 12.3547C2.43285 12.3391 2.03913 12.6963 2.16222 13.5735C2.26177 14.5657 2.49884 15.0108 2.68502 15.5566C3.01319 16.4386 2.71641 17.1125 2.77835 17.9507C2.7291 18.0282 2.62223 18.2097 2.5956 18.2551C1.46151 18.7305 -0.50409 19.7769 1.49427 20.7711C1.66509 20.8687 1.82119 20.9623 1.89982 21.1555C1.91535 21.973 0.623806 23.9483 2.51894 23.4874C3.24557 23.2958 3.55752 22.5929 4.20946 22.3484C5.12323 22.015 6.97323 22.1079 7.95461 22.1728C8.38273 22.2294 8.72672 22.4188 9.13692 22.529C9.62889 22.6552 10.1087 22.7028 10.5423 22.8035C10.827 22.8693 11.0996 22.9585 11.3725 23.1094C11.8584 23.4517 12.3106 23.7222 12.8299 23.8981C13.0229 23.9656 13.1396 24.0825 13.3195 24.1812C13.4767 24.232 13.5891 24.0887 13.7331 24.0286C13.9939 23.8939 14.2653 23.8071 14.5548 23.7784C16.0522 23.6114 15.6546 25.2607 17.0204 23.9157C17.1286 23.8331 17.2421 23.7578 17.3871 23.7964C17.6053 23.9381 17.6125 24.2349 17.7477 24.4678C18.1792 25.2581 18.6879 24.4186 18.8483 24.4467C20.7489 24.2152 20.3063 24.166 20.9931 25.0416C21.2232 25.3539 21.416 25.166 21.6263 25.034C22.7681 24.0415 21.0451 23.2954 22.0206 21.8082C22.364 21.0549 23.7995 21.398 24.4837 21.0232C25.2924 20.7749 24.6683 20.3671 24.5116 19.9665C24.5116 19.7525 24.6775 19.5115 24.6019 19.2925C24.2327 18.2045 24.2623 18.676 24.3303 17.846C24.3254 17.3948 23.911 17.236 23.5958 17.0419C22.9796 16.7563 23.547 16.3398 23.7021 16.3554C24.4262 16.4881 24.7005 17.0567 25.4316 16.7698C25.803 16.6454 26.075 16.3825 26.3812 16.1296C27.1866 15.5381 27.747 15.2568 26.9608 14.3377C25.6223 12.7156 25.6535 13.3618 24.891 13.2039C24.875 12.9481 25.0004 12.656 24.8897 12.3998C24.3167 11.5435 23.6101 11.9276 23.0458 10.8996C22.5322 10.2522 22.8564 10.0183 22.746 9.48889C22.6218 8.98943 22.0371 8.92516 21.9535 8.61957C21.9345 7.6964 22.4199 7.43222 21.9235 6.64246C21.8169 6.09999 22.1345 5.48273 21.7122 5.06406C21.5404 4.89627 20.2343 4.16355 19.7087 4.07714C19.1133 3.9877 18.7781 5.07744 18.2342 4.5116C17.9981 4.13969 17.9673 3.62984 17.6037 3.37208C16.8596 2.90051 16.4686 4.03484 16.1269 3.56057C15.8537 3.28502 15.6138 3.02077 15.2583 2.89259C13.9557 2.50472 13.4809 3.92989 12.7307 4.22036C12.1477 4.47446 11.4687 4.46673 10.9996 4.76861C10.2394 5.20518 9.87152 6.66462 10.7926 7.09505ZM19.6343 4.50939C19.9464 4.57376 20.5618 4.87229 20.952 5.08761C21.7309 5.46344 21.4776 5.64459 21.4623 6.44465C21.457 6.60975 21.4897 6.77173 21.5743 6.93028C21.9899 7.51193 21.2685 8.23947 21.5873 8.87893C21.6626 9.01921 21.7744 9.11973 21.911 9.21913C22.778 9.69234 21.9839 10.1042 22.5057 10.8801C23.3581 12.2176 23.5558 11.8968 24.3231 12.402C24.6385 12.5918 24.4313 12.8692 24.4518 13.174C24.4593 13.3584 24.5205 13.4913 24.6569 13.5738C25.8343 13.9307 25.2943 13.0973 26.5112 14.4795C27.1434 15.2022 26.9237 15.188 26.3111 15.631C25.8136 15.979 25.2836 16.6958 24.6347 16.2738C23.0988 15.2821 22.7936 16.7317 22.8722 16.8919C22.9804 17.291 23.4917 17.4442 23.7985 17.6826C24.0419 17.903 23.7181 18.4642 23.9328 18.7669C24.563 20.0168 23.6186 19.5955 24.387 20.5928C23.5308 20.9391 23.0093 20.7441 22.2491 21.0244C21.824 21.1824 21.6562 21.5305 21.4641 21.9483C20.7868 23.3858 22.1577 24.2037 21.3004 24.7264C20.8506 24.1197 20.7266 23.7556 19.9327 23.8868C18.415 24.0358 18.6962 24.0067 18.1935 24.359C17.872 23.6907 17.7077 23.0573 16.8884 23.478C16.6267 23.6237 16.3851 23.969 16.1861 24.0097C16.0085 23.9113 15.8013 23.6381 15.6182 23.5277C14.9416 23.1794 14.0507 23.3289 13.4046 23.7098C13.0771 23.4961 12.7194 23.3945 12.376 23.235C11.6763 22.8209 11.5084 22.6091 10.9051 22.4545C10.4565 22.3256 9.99079 22.2707 9.47599 22.1594C8.90979 22.0516 8.47881 21.787 7.92435 21.7295C6.91325 21.6684 4.91657 21.5974 4.00877 21.9575C3.10148 22.3363 2.9444 23.1712 1.93365 23.1032C1.91459 22.6989 2.11117 22.1877 2.23012 21.7644C2.92387 20.1316 0.30202 20.4148 1.32055 19.469C2.08492 18.8264 2.84849 18.754 2.98917 18.4579C3.0937 18.2658 3.16984 18.1955 3.22081 18.0422C3.20086 17.7122 3.20177 17.397 3.23726 17.089C3.4033 15.8731 3.04646 15.3375 2.79727 14.5737C2.40574 13.0097 2.43766 12.6462 3.62805 12.8344C6.03567 13.4928 5.63141 12.6014 6.27584 12.0802C6.55378 11.8891 6.92135 11.8226 7.2186 11.7041C7.50705 11.7839 7.75552 12.0654 8.09175 12.1075C8.91258 12.0751 8.52321 11.3475 8.27096 10.9389C8.22126 10.4585 8.40601 9.56975 8.56987 9.1345C10.2591 7.04084 10.4352 8.04987 11.2284 7.30217C11.3572 7.14497 11.3264 6.92913 11.1497 6.80443C10.9836 6.67813 10.8001 6.63606 10.7147 6.41954C10.5761 6.00636 10.884 5.35125 11.1915 5.17324C11.7588 4.79676 12.6326 4.88839 13.2576 4.41749C13.8676 3.98379 14.2709 3.06052 15.1189 3.30501C15.5564 3.4589 15.7822 3.96929 16.1562 4.10441C16.5712 4.23901 16.8918 3.7787 17.2246 3.69769C17.7622 3.67466 17.564 5.56544 18.9744 5.00694C19.2116 4.88897 19.3308 4.63966 19.6343 4.50939Z" fill="#FAFAFA"/>
<path fill-rule="evenodd" clip-rule="evenodd" d="M10.7926 7.09505C10.4702 7.26746 10.0032 7.29937 9.85756 7.37033C9.33007 7.63929 8.55576 8.39537 8.2082 8.89566C8.00461 9.24709 7.79605 10.3856 7.83145 10.9508C7.83945 11.1411 8.08664 11.4429 8.15639 11.6731L8.155 11.6747C7.52424 11.4537 7.43695 11.0925 6.84871 11.372C6.52527 11.482 6.17295 11.589 5.92856 11.7977C5.41912 12.307 5.56181 12.6886 4.82094 12.6357C4.31258 12.6007 3.81952 12.3747 3.31065 12.3547C2.43285 12.3391 2.03913 12.6963 2.16222 13.5735C2.26177 14.5657 2.49884 15.0108 2.68502 15.5566C3.01319 16.4386 2.71641 17.1125 2.77835 17.9507C2.7291 18.0282 2.62223 18.2097 2.5956 18.2551C1.46151 18.7305 -0.50409 19.7769 1.49427 20.7711C1.66509 20.8687 1.82119 20.9623 1.89982 21.1555C1.91535 21.973 0.623806 23.9483 2.51894 23.4874C3.24557 23.2958 3.55752 22.5929 4.20946 22.3484C5.12323 22.015 6.97323 22.1079 7.95461 22.1728C8.38273 22.2294 8.72672 22.4188 9.13692 22.529C9.62889 22.6552 10.1087 22.7028 10.5423 22.8035C10.827 22.8693 11.0996 22.9585 11.3725 23.1094C11.8584 23.4517 12.3106 23.7222 12.8299 23.8981C13.0229 23.9656 13.1396 24.0825 13.3195 24.1812C13.4767 24.232 13.5891 24.0887 13.7331 24.0286C13.9939 23.8939 14.2653 23.8071 14.5548 23.7784C16.0522 23.6114 15.6546 25.2607 17.0204 23.9157C17.1286 23.8331 17.2421 23.7578 17.3871 23.7964C17.6053 23.9381 17.6125 24.2349 17.7477 24.4678C18.1792 25.2581 18.6879 24.4186 18.8483 24.4467C20.7489 24.2152 20.3063 24.166 20.9931 25.0416C21.2232 25.3539 21.416 25.166 21.6263 25.034C22.7681 24.0415 21.0451 23.2954 22.0206 21.8082C22.364 21.0549 23.7995 21.398 24.4837 21.0232C25.2924 20.7749 24.6683 20.3671 24.5116 19.9665C24.5116 19.7525 24.6775 19.5115 24.6019 19.2925C24.2327 18.2045 24.2623 18.676 24.3303 17.846C24.3254 17.3948 23.911 17.236 23.5958 17.0419C22.9796 16.7563 23.547 16.3398 23.7021 16.3554C24.4262 16.4881 24.7005 17.0567 25.4316 16.7698C25.803 16.6454 26.075 16.3825 26.3812 16.1296C27.1866 15.5381 27.747 15.2568 26.9608 14.3377C25.6223 12.7156 25.6535 13.3618 24.891 13.2039C24.875 12.9481 25.0004 12.656 24.8897 12.3998C24.3167 11.5435 23.6101 11.9276 23.0458 10.8996C22.5322 10.2522 22.8564 10.0183 22.746 9.48889C22.6218 8.98943 22.0371 8.92516 21.9535 8.61957C21.9345 7.6964 22.4199 7.43222 21.9235 6.64246C21.8169 6.09999 22.1345 5.48273 21.7122 5.06406C21.5404 4.89627 20.2343 4.16355 19.7087 4.07714C19.1133 3.9877 18.7781 5.07744 18.2342 4.5116C17.9981 4.13969 17.9673 3.62984 17.6037 3.37208C16.8596 2.90051 16.4686 4.03484 16.1269 3.56057C15.8537 3.28502 15.6138 3.02077 15.2583 2.89259C13.9557 2.50472 13.4809 3.92989 12.7307 4.22036C12.1477 4.47446 11.4687 4.46673 10.9996 4.76861C10.2394 5.20518 9.87152 6.66462 10.7926 7.09505ZM19.6343 4.50939C19.9464 4.57376 20.5618 4.87229 20.952 5.08761C21.7309 5.46344 21.4776 5.64459 21.4623 6.44465C21.457 6.60975 21.4897 6.77173 21.5743 6.93028C21.9899 7.51193 21.2685 8.23947 21.5873 8.87893C21.6626 9.01921 21.7744 9.11973 21.911 9.21913C22.778 9.69234 21.9839 10.1042 22.5057 10.8801C23.3581 12.2176 23.5558 11.8968 24.3231 12.402C24.6385 12.5918 24.4313 12.8692 24.4518 13.174C24.4593 13.3584 24.5205 13.4913 24.6569 13.5738C25.8343 13.9307 25.2943 13.0973 26.5112 14.4795C27.1434 15.2022 26.9237 15.188 26.3111 15.631C25.8136 15.979 25.2836 16.6958 24.6347 16.2738C23.0988 15.2821 22.7936 16.7317 22.8722 16.8919C22.9804 17.291 23.4917 17.4442 23.7985 17.6826C24.0419 17.903 23.7181 18.4642 23.9328 18.7669C24.563 20.0168 23.6186 19.5955 24.387 20.5928C23.5308 20.9391 23.0093 20.7441 22.2491 21.0244C21.824 21.1824 21.6562 21.5305 21.4641 21.9483C20.7868 23.3858 22.1577 24.2037 21.3004 24.7264C20.8506 24.1197 20.7266 23.7556 19.9327 23.8868C18.415 24.0358 18.6962 24.0067 18.1935 24.359C17.872 23.6907 17.7077 23.0573 16.8884 23.478C16.6267 23.6237 16.3851 23.969 16.1861 24.0097C16.0085 23.9113 15.8013 23.6381 15.6182 23.5277C14.9416 23.1794 14.0507 23.3289 13.4046 23.7098C13.0771 23.4961 12.7194 23.3945 12.376 23.235C11.6763 22.8209 11.5084 22.6091 10.9051 22.4545C10.4565 22.3256 9.99079 22.2707 9.47599 22.1594C8.90979 22.0516 8.47881 21.787 7.92435 21.7295C6.91325 21.6684 4.91657 21.5974 4.00877 21.9575C3.10148 22.3363 2.9444 23.1712 1.93365 23.1032C1.91459 22.6989 2.11117 22.1877 2.23012 21.7644C2.92387 20.1316 0.30202 20.4148 1.32055 19.469C2.08492 18.8264 2.84849 18.754 2.98917 18.4579C3.0937 18.2658 3.16984 18.1955 3.22081 18.0422C3.20086 17.7122 3.20177 17.397 3.23726 17.089C3.4033 15.8731 3.04646 15.3375 2.79727 14.5737C2.40574 13.0097 2.43766 12.6462 3.62805 12.8344C6.03567 13.4928 5.63141 12.6014 6.27584 12.0802C6.55378 11.8891 6.92135 11.8226 7.2186 11.7041C7.50705 11.7839 7.75552 12.0654 8.09175 12.1075C8.91258 12.0751 8.52321 11.3475 8.27096 10.9389C8.22126 10.4585 8.40601 9.56975 8.56987 9.1345C10.2591 7.04084 10.4352 8.04987 11.2284 7.30217C11.3572 7.14497 11.3264 6.92913 11.1497 6.80443C10.9836 6.67813 10.8001 6.63606 10.7147 6.41954C10.5761 6.00636 10.884 5.35125 11.1915 5.17324C11.7588 4.79676 12.6326 4.88839 13.2576 4.41749C13.8676 3.98379 14.2709 3.06052 15.1189 3.30501C15.5564 3.4589 15.7822 3.96929 16.1562 4.10441C16.5712 4.23901 16.8918 3.7787 17.2246 3.69769C17.7622 3.67466 17.564 5.56544 18.9744 5.00694C19.2116 4.88897 19.3308 4.63966 19.6343 4.50939Z" stroke="#FAFAFA" stroke-width="0.6" mask="url(#path-1-outside-1_6224_4461)"/>
</svg>
