<svg width="32" height="33" viewBox="0 0 32 33" fill="none" xmlns="http://www.w3.org/2000/svg">
<mask id="path-1-outside-1_2811_6330" maskUnits="userSpaceOnUse" x="-0.273438" y="2.72998" width="33" height="28" fill="black">
<rect fill="white" x="-0.273438" y="2.72998" width="33" height="28"/>
<path fill-rule="evenodd" clip-rule="evenodd" d="M12.3344 8.6087C11.9659 8.80573 11.4322 8.8422 11.2658 8.9233C10.6629 9.23068 9.77801 10.0948 9.3808 10.6665C9.14813 11.0682 8.90977 12.3694 8.95023 13.0153C8.95937 13.2327 9.24187 13.5776 9.32159 13.8407L9.32 13.8426C8.59913 13.59 8.49937 13.1773 7.8271 13.4967C7.45745 13.6223 7.0548 13.7446 6.7755 13.9831C6.19328 14.5653 6.35636 15.0014 5.50965 14.9409C4.92866 14.9009 4.36517 14.6426 3.7836 14.6197C2.7804 14.6019 2.33044 15.0101 2.47111 16.0127C2.58488 17.1466 2.85582 17.6553 3.06859 18.279C3.44364 19.2871 3.10447 20.0572 3.17526 21.0152C3.11897 21.1037 2.99684 21.3112 2.9664 21.3631C1.6703 21.9063 -0.576103 23.1023 1.70774 24.2385C1.90296 24.35 2.08136 24.457 2.17123 24.6778C2.18897 25.6121 0.712921 27.8696 2.87879 27.3428C3.70922 27.1239 4.06574 26.3205 4.81081 26.0411C5.85512 25.6601 7.9694 25.7663 9.09098 25.8404C9.58026 25.9051 9.9734 26.1215 10.4422 26.2475C11.0044 26.3917 11.5528 26.4462 12.0484 26.5613C12.3737 26.6364 12.6852 26.7384 12.9971 26.9108C13.5524 27.3021 14.0693 27.6112 14.6627 27.8122C14.8833 27.8893 15.0166 28.0229 15.2222 28.1357C15.4019 28.1937 15.5304 28.0301 15.6949 27.9613C15.993 27.8073 16.3032 27.7082 16.6341 27.6753C18.3454 27.4845 17.891 29.3694 19.4519 27.8323C19.5755 27.7379 19.7052 27.6518 19.8709 27.696C20.1203 27.8579 20.1286 28.1971 20.2831 28.4633C20.7762 29.3665 21.3576 28.407 21.5409 28.4391C23.713 28.1746 23.2072 28.1184 23.9921 29.1191C24.255 29.4759 24.4754 29.2613 24.7158 29.1103C26.0206 27.9761 24.0516 27.1234 25.1664 25.4237C25.5589 24.5628 27.1994 24.9549 27.9813 24.5266C28.9056 24.2428 28.1924 23.7768 28.0132 23.3189C28.0132 23.0744 28.2028 22.799 28.1164 22.5486C27.6946 21.3052 27.7283 21.8441 27.806 20.8955C27.8004 20.3798 27.3269 20.1984 26.9667 19.9765C26.2624 19.6501 26.9109 19.1742 27.0881 19.1919C27.9156 19.3436 28.2291 19.9935 29.0647 19.6656C29.4892 19.5234 29.8 19.2229 30.1499 18.9339C31.0704 18.2579 31.7109 17.9364 30.8123 16.8861C29.2826 15.0322 29.3182 15.7707 28.4468 15.5902C28.4286 15.2979 28.5718 14.9641 28.4454 14.6712C27.7905 13.6926 26.9829 14.1316 26.338 12.9568C25.7511 12.2168 26.1215 11.9496 25.9954 11.3445C25.8535 10.7737 25.1852 10.7002 25.0897 10.351C25.068 9.29595 25.6228 8.99403 25.0555 8.09145C24.9336 7.47148 25.2965 6.76604 24.814 6.28757C24.6177 6.0958 23.125 5.25842 22.5243 5.15965C21.8437 5.05744 21.4607 6.30285 20.8391 5.65619C20.5693 5.23114 20.5341 4.64845 20.1185 4.35387C19.2682 3.81494 18.8212 5.11131 18.4307 4.5693C18.1185 4.25437 17.8444 3.95238 17.4381 3.80588C15.9493 3.36261 15.4068 4.99138 14.5494 5.32333C13.8831 5.61374 13.1071 5.6049 12.571 5.94991C11.7022 6.44885 11.2817 8.11677 12.3344 8.6087ZM22.4392 5.65366C22.7959 5.72723 23.4992 6.0684 23.9451 6.31448C24.8353 6.744 24.5458 6.95103 24.5283 7.86538C24.5222 8.05407 24.5597 8.23919 24.6563 8.42039C25.1313 9.08514 24.3068 9.9166 24.6712 10.6474C24.7573 10.8077 24.8851 10.9226 25.0411 11.0362C26.032 11.577 25.1244 12.0478 25.7207 12.9345C26.695 14.463 26.9209 14.0964 27.7978 14.6738C28.1583 14.8907 27.9215 15.2077 27.9449 15.5561C27.9535 15.7668 28.0234 15.9187 28.1794 16.013C29.5249 16.4209 28.9078 15.4684 30.2985 17.048C31.021 17.874 30.7699 17.8578 30.0699 18.3641C29.5013 18.7618 28.8956 19.5809 28.1539 19.0987C26.3986 17.9653 26.0498 19.622 26.1397 19.8051C26.2633 20.2612 26.8477 20.4363 27.1983 20.7088C27.4765 20.9607 27.1064 21.6021 27.3517 21.948C28.072 23.3764 26.9927 22.8949 27.8709 24.0347C26.8923 24.4305 26.2963 24.2076 25.4276 24.528C24.9418 24.7085 24.7499 25.1064 24.5304 25.5839C23.7563 27.2267 25.3231 28.1614 24.3433 28.7589C23.8292 28.0655 23.6875 27.6493 22.7802 27.7993C21.0457 27.9695 21.3671 27.9363 20.7926 28.3389C20.4252 27.5752 20.2373 26.8513 19.301 27.332C19.002 27.4986 18.7258 27.8933 18.4984 27.9398C18.2954 27.8273 18.0586 27.515 17.8493 27.3889C17.0761 26.9909 16.0579 27.1617 15.3196 27.597C14.9452 27.3528 14.5364 27.2366 14.144 27.0543C13.3443 26.5811 13.1524 26.3391 12.463 26.1624C11.9503 26.015 11.4181 25.9523 10.8297 25.8251C10.1826 25.7019 9.69007 25.3995 9.0564 25.3338C7.90086 25.264 5.61894 25.1829 4.58145 25.5943C3.54455 26.0273 3.36503 26.9814 2.20988 26.9037C2.1881 26.4416 2.41276 25.8575 2.54871 25.3737C3.34156 23.5077 0.345166 23.8313 1.5092 22.7504C2.38277 22.0159 3.25542 21.9332 3.4162 21.5948C3.53566 21.3752 3.62267 21.2949 3.68092 21.1197C3.65813 20.7426 3.65916 20.3824 3.69973 20.0304C3.88949 18.6408 3.48167 18.0287 3.19688 17.1557C2.74941 15.3682 2.78589 14.9529 4.14634 15.168C6.89791 15.9205 6.4359 14.9017 7.17239 14.306C7.49003 14.0876 7.91012 14.0116 8.24983 13.8762C8.57949 13.9674 8.86345 14.2891 9.24771 14.3373C10.1858 14.3002 9.74081 13.4686 9.45253 13.0017C9.39573 12.4526 9.60687 11.4369 9.79414 10.9395C11.7247 8.54675 11.9259 9.69992 12.8325 8.8454C12.9797 8.66575 12.9445 8.41908 12.7425 8.27656C12.5526 8.13222 12.343 8.08414 12.2453 7.83669C12.087 7.36448 12.4389 6.61578 12.7903 6.41235C13.4387 5.98208 14.4373 6.0868 15.1516 5.54863C15.8487 5.05298 16.3096 3.99781 17.2787 4.27722C17.7787 4.45309 18.0368 5.0364 18.4643 5.19082C18.9385 5.34466 19.3049 4.81859 19.6853 4.726C20.2997 4.69968 20.0732 6.86057 21.685 6.22229C21.9561 6.08746 22.0924 5.80253 22.4392 5.65365V5.65366Z"/>
</mask>
<path fill-rule="evenodd" clip-rule="evenodd" d="M12.3344 8.6087C11.9659 8.80573 11.4322 8.8422 11.2658 8.9233C10.6629 9.23068 9.77801 10.0948 9.3808 10.6665C9.14813 11.0682 8.90977 12.3694 8.95023 13.0153C8.95937 13.2327 9.24187 13.5776 9.32159 13.8407L9.32 13.8426C8.59913 13.59 8.49937 13.1773 7.8271 13.4967C7.45745 13.6223 7.0548 13.7446 6.7755 13.9831C6.19328 14.5653 6.35636 15.0014 5.50965 14.9409C4.92866 14.9009 4.36517 14.6426 3.7836 14.6197C2.7804 14.6019 2.33044 15.0101 2.47111 16.0127C2.58488 17.1466 2.85582 17.6553 3.06859 18.279C3.44364 19.2871 3.10447 20.0572 3.17526 21.0152C3.11897 21.1037 2.99684 21.3112 2.9664 21.3631C1.6703 21.9063 -0.576103 23.1023 1.70774 24.2385C1.90296 24.35 2.08136 24.457 2.17123 24.6778C2.18897 25.6121 0.712921 27.8696 2.87879 27.3428C3.70922 27.1239 4.06574 26.3205 4.81081 26.0411C5.85512 25.6601 7.9694 25.7663 9.09098 25.8404C9.58026 25.9051 9.9734 26.1215 10.4422 26.2475C11.0044 26.3917 11.5528 26.4462 12.0484 26.5613C12.3737 26.6364 12.6852 26.7384 12.9971 26.9108C13.5524 27.3021 14.0693 27.6112 14.6627 27.8122C14.8833 27.8893 15.0166 28.0229 15.2222 28.1357C15.4019 28.1937 15.5304 28.0301 15.6949 27.9613C15.993 27.8073 16.3032 27.7082 16.6341 27.6753C18.3454 27.4845 17.891 29.3694 19.4519 27.8323C19.5755 27.7379 19.7052 27.6518 19.8709 27.696C20.1203 27.8579 20.1286 28.1971 20.2831 28.4633C20.7762 29.3665 21.3576 28.407 21.5409 28.4391C23.713 28.1746 23.2072 28.1184 23.9921 29.1191C24.255 29.4759 24.4754 29.2613 24.7158 29.1103C26.0206 27.9761 24.0516 27.1234 25.1664 25.4237C25.5589 24.5628 27.1994 24.9549 27.9813 24.5266C28.9056 24.2428 28.1924 23.7768 28.0132 23.3189C28.0132 23.0744 28.2028 22.799 28.1164 22.5486C27.6946 21.3052 27.7283 21.8441 27.806 20.8955C27.8004 20.3798 27.3269 20.1984 26.9667 19.9765C26.2624 19.6501 26.9109 19.1742 27.0881 19.1919C27.9156 19.3436 28.2291 19.9935 29.0647 19.6656C29.4892 19.5234 29.8 19.2229 30.1499 18.9339C31.0704 18.2579 31.7109 17.9364 30.8123 16.8861C29.2826 15.0322 29.3182 15.7707 28.4468 15.5902C28.4286 15.2979 28.5718 14.9641 28.4454 14.6712C27.7905 13.6926 26.9829 14.1316 26.338 12.9568C25.7511 12.2168 26.1215 11.9496 25.9954 11.3445C25.8535 10.7737 25.1852 10.7002 25.0897 10.351C25.068 9.29595 25.6228 8.99403 25.0555 8.09145C24.9336 7.47148 25.2965 6.76604 24.814 6.28757C24.6177 6.0958 23.125 5.25842 22.5243 5.15965C21.8437 5.05744 21.4607 6.30285 20.8391 5.65619C20.5693 5.23114 20.5341 4.64845 20.1185 4.35387C19.2682 3.81494 18.8212 5.11131 18.4307 4.5693C18.1185 4.25437 17.8444 3.95238 17.4381 3.80588C15.9493 3.36261 15.4068 4.99138 14.5494 5.32333C13.8831 5.61374 13.1071 5.6049 12.571 5.94991C11.7022 6.44885 11.2817 8.11677 12.3344 8.6087ZM22.4392 5.65366C22.7959 5.72723 23.4992 6.0684 23.9451 6.31448C24.8353 6.744 24.5458 6.95103 24.5283 7.86538C24.5222 8.05407 24.5597 8.23919 24.6563 8.42039C25.1313 9.08514 24.3068 9.9166 24.6712 10.6474C24.7573 10.8077 24.8851 10.9226 25.0411 11.0362C26.032 11.577 25.1244 12.0478 25.7207 12.9345C26.695 14.463 26.9209 14.0964 27.7978 14.6738C28.1583 14.8907 27.9215 15.2077 27.9449 15.5561C27.9535 15.7668 28.0234 15.9187 28.1794 16.013C29.5249 16.4209 28.9078 15.4684 30.2985 17.048C31.021 17.874 30.7699 17.8578 30.0699 18.3641C29.5013 18.7618 28.8956 19.5809 28.1539 19.0987C26.3986 17.9653 26.0498 19.622 26.1397 19.8051C26.2633 20.2612 26.8477 20.4363 27.1983 20.7088C27.4765 20.9607 27.1064 21.6021 27.3517 21.948C28.072 23.3764 26.9927 22.8949 27.8709 24.0347C26.8923 24.4305 26.2963 24.2076 25.4276 24.528C24.9418 24.7085 24.7499 25.1064 24.5304 25.5839C23.7563 27.2267 25.3231 28.1614 24.3433 28.7589C23.8292 28.0655 23.6875 27.6493 22.7802 27.7993C21.0457 27.9695 21.3671 27.9363 20.7926 28.3389C20.4252 27.5752 20.2373 26.8513 19.301 27.332C19.002 27.4986 18.7258 27.8933 18.4984 27.9398C18.2954 27.8273 18.0586 27.515 17.8493 27.3889C17.0761 26.9909 16.0579 27.1617 15.3196 27.597C14.9452 27.3528 14.5364 27.2366 14.144 27.0543C13.3443 26.5811 13.1524 26.3391 12.463 26.1624C11.9503 26.015 11.4181 25.9523 10.8297 25.8251C10.1826 25.7019 9.69007 25.3995 9.0564 25.3338C7.90086 25.264 5.61894 25.1829 4.58145 25.5943C3.54455 26.0273 3.36503 26.9814 2.20988 26.9037C2.1881 26.4416 2.41276 25.8575 2.54871 25.3737C3.34156 23.5077 0.345166 23.8313 1.5092 22.7504C2.38277 22.0159 3.25542 21.9332 3.4162 21.5948C3.53566 21.3752 3.62267 21.2949 3.68092 21.1197C3.65813 20.7426 3.65916 20.3824 3.69973 20.0304C3.88949 18.6408 3.48167 18.0287 3.19688 17.1557C2.74941 15.3682 2.78589 14.9529 4.14634 15.168C6.89791 15.9205 6.4359 14.9017 7.17239 14.306C7.49003 14.0876 7.91012 14.0116 8.24983 13.8762C8.57949 13.9674 8.86345 14.2891 9.24771 14.3373C10.1858 14.3002 9.74081 13.4686 9.45253 13.0017C9.39573 12.4526 9.60687 11.4369 9.79414 10.9395C11.7247 8.54675 11.9259 9.69992 12.8325 8.8454C12.9797 8.66575 12.9445 8.41908 12.7425 8.27656C12.5526 8.13222 12.343 8.08414 12.2453 7.83669C12.087 7.36448 12.4389 6.61578 12.7903 6.41235C13.4387 5.98208 14.4373 6.0868 15.1516 5.54863C15.8487 5.05298 16.3096 3.99781 17.2787 4.27722C17.7787 4.45309 18.0368 5.0364 18.4643 5.19082C18.9385 5.34466 19.3049 4.81859 19.6853 4.726C20.2997 4.69968 20.0732 6.86057 21.685 6.22229C21.9561 6.08746 22.0924 5.80253 22.4392 5.65365V5.65366Z" fill="#FAFAFA"/>
<path fill-rule="evenodd" clip-rule="evenodd" d="M12.3344 8.6087C11.9659 8.80573 11.4322 8.8422 11.2658 8.9233C10.6629 9.23068 9.77801 10.0948 9.3808 10.6665C9.14813 11.0682 8.90977 12.3694 8.95023 13.0153C8.95937 13.2327 9.24187 13.5776 9.32159 13.8407L9.32 13.8426C8.59913 13.59 8.49937 13.1773 7.8271 13.4967C7.45745 13.6223 7.0548 13.7446 6.7755 13.9831C6.19328 14.5653 6.35636 15.0014 5.50965 14.9409C4.92866 14.9009 4.36517 14.6426 3.7836 14.6197C2.7804 14.6019 2.33044 15.0101 2.47111 16.0127C2.58488 17.1466 2.85582 17.6553 3.06859 18.279C3.44364 19.2871 3.10447 20.0572 3.17526 21.0152C3.11897 21.1037 2.99684 21.3112 2.9664 21.3631C1.6703 21.9063 -0.576103 23.1023 1.70774 24.2385C1.90296 24.35 2.08136 24.457 2.17123 24.6778C2.18897 25.6121 0.712921 27.8696 2.87879 27.3428C3.70922 27.1239 4.06574 26.3205 4.81081 26.0411C5.85512 25.6601 7.9694 25.7663 9.09098 25.8404C9.58026 25.9051 9.9734 26.1215 10.4422 26.2475C11.0044 26.3917 11.5528 26.4462 12.0484 26.5613C12.3737 26.6364 12.6852 26.7384 12.9971 26.9108C13.5524 27.3021 14.0693 27.6112 14.6627 27.8122C14.8833 27.8893 15.0166 28.0229 15.2222 28.1357C15.4019 28.1937 15.5304 28.0301 15.6949 27.9613C15.993 27.8073 16.3032 27.7082 16.6341 27.6753C18.3454 27.4845 17.891 29.3694 19.4519 27.8323C19.5755 27.7379 19.7052 27.6518 19.8709 27.696C20.1203 27.8579 20.1286 28.1971 20.2831 28.4633C20.7762 29.3665 21.3576 28.407 21.5409 28.4391C23.713 28.1746 23.2072 28.1184 23.9921 29.1191C24.255 29.4759 24.4754 29.2613 24.7158 29.1103C26.0206 27.9761 24.0516 27.1234 25.1664 25.4237C25.5589 24.5628 27.1994 24.9549 27.9813 24.5266C28.9056 24.2428 28.1924 23.7768 28.0132 23.3189C28.0132 23.0744 28.2028 22.799 28.1164 22.5486C27.6946 21.3052 27.7283 21.8441 27.806 20.8955C27.8004 20.3798 27.3269 20.1984 26.9667 19.9765C26.2624 19.6501 26.9109 19.1742 27.0881 19.1919C27.9156 19.3436 28.2291 19.9935 29.0647 19.6656C29.4892 19.5234 29.8 19.2229 30.1499 18.9339C31.0704 18.2579 31.7109 17.9364 30.8123 16.8861C29.2826 15.0322 29.3182 15.7707 28.4468 15.5902C28.4286 15.2979 28.5718 14.9641 28.4454 14.6712C27.7905 13.6926 26.9829 14.1316 26.338 12.9568C25.7511 12.2168 26.1215 11.9496 25.9954 11.3445C25.8535 10.7737 25.1852 10.7002 25.0897 10.351C25.068 9.29595 25.6228 8.99403 25.0555 8.09145C24.9336 7.47148 25.2965 6.76604 24.814 6.28757C24.6177 6.0958 23.125 5.25842 22.5243 5.15965C21.8437 5.05744 21.4607 6.30285 20.8391 5.65619C20.5693 5.23114 20.5341 4.64845 20.1185 4.35387C19.2682 3.81494 18.8212 5.11131 18.4307 4.5693C18.1185 4.25437 17.8444 3.95238 17.4381 3.80588C15.9493 3.36261 15.4068 4.99138 14.5494 5.32333C13.8831 5.61374 13.1071 5.6049 12.571 5.94991C11.7022 6.44885 11.2817 8.11677 12.3344 8.6087ZM22.4392 5.65366C22.7959 5.72723 23.4992 6.0684 23.9451 6.31448C24.8353 6.744 24.5458 6.95103 24.5283 7.86538C24.5222 8.05407 24.5597 8.23919 24.6563 8.42039C25.1313 9.08514 24.3068 9.9166 24.6712 10.6474C24.7573 10.8077 24.8851 10.9226 25.0411 11.0362C26.032 11.577 25.1244 12.0478 25.7207 12.9345C26.695 14.463 26.9209 14.0964 27.7978 14.6738C28.1583 14.8907 27.9215 15.2077 27.9449 15.5561C27.9535 15.7668 28.0234 15.9187 28.1794 16.013C29.5249 16.4209 28.9078 15.4684 30.2985 17.048C31.021 17.874 30.7699 17.8578 30.0699 18.3641C29.5013 18.7618 28.8956 19.5809 28.1539 19.0987C26.3986 17.9653 26.0498 19.622 26.1397 19.8051C26.2633 20.2612 26.8477 20.4363 27.1983 20.7088C27.4765 20.9607 27.1064 21.6021 27.3517 21.948C28.072 23.3764 26.9927 22.8949 27.8709 24.0347C26.8923 24.4305 26.2963 24.2076 25.4276 24.528C24.9418 24.7085 24.7499 25.1064 24.5304 25.5839C23.7563 27.2267 25.3231 28.1614 24.3433 28.7589C23.8292 28.0655 23.6875 27.6493 22.7802 27.7993C21.0457 27.9695 21.3671 27.9363 20.7926 28.3389C20.4252 27.5752 20.2373 26.8513 19.301 27.332C19.002 27.4986 18.7258 27.8933 18.4984 27.9398C18.2954 27.8273 18.0586 27.515 17.8493 27.3889C17.0761 26.9909 16.0579 27.1617 15.3196 27.597C14.9452 27.3528 14.5364 27.2366 14.144 27.0543C13.3443 26.5811 13.1524 26.3391 12.463 26.1624C11.9503 26.015 11.4181 25.9523 10.8297 25.8251C10.1826 25.7019 9.69007 25.3995 9.0564 25.3338C7.90086 25.264 5.61894 25.1829 4.58145 25.5943C3.54455 26.0273 3.36503 26.9814 2.20988 26.9037C2.1881 26.4416 2.41276 25.8575 2.54871 25.3737C3.34156 23.5077 0.345166 23.8313 1.5092 22.7504C2.38277 22.0159 3.25542 21.9332 3.4162 21.5948C3.53566 21.3752 3.62267 21.2949 3.68092 21.1197C3.65813 20.7426 3.65916 20.3824 3.69973 20.0304C3.88949 18.6408 3.48167 18.0287 3.19688 17.1557C2.74941 15.3682 2.78589 14.9529 4.14634 15.168C6.89791 15.9205 6.4359 14.9017 7.17239 14.306C7.49003 14.0876 7.91012 14.0116 8.24983 13.8762C8.57949 13.9674 8.86345 14.2891 9.24771 14.3373C10.1858 14.3002 9.74081 13.4686 9.45253 13.0017C9.39573 12.4526 9.60687 11.4369 9.79414 10.9395C11.7247 8.54675 11.9259 9.69992 12.8325 8.8454C12.9797 8.66575 12.9445 8.41908 12.7425 8.27656C12.5526 8.13222 12.343 8.08414 12.2453 7.83669C12.087 7.36448 12.4389 6.61578 12.7903 6.41235C13.4387 5.98208 14.4373 6.0868 15.1516 5.54863C15.8487 5.05298 16.3096 3.99781 17.2787 4.27722C17.7787 4.45309 18.0368 5.0364 18.4643 5.19082C18.9385 5.34466 19.3049 4.81859 19.6853 4.726C20.2997 4.69968 20.0732 6.86057 21.685 6.22229C21.9561 6.08746 22.0924 5.80253 22.4392 5.65365V5.65366Z" stroke="#FAFAFA" stroke-width="1.2" mask="url(#path-1-outside-1_2811_6330)"/>
</svg>
