<svg width="28" height="28" viewBox="0 0 28 28" fill="none" xmlns="http://www.w3.org/2000/svg">
<path d="M26.0625 26.7141H26.0623L5.08344 26.6889L26.0625 26.7141ZM26.0625 26.7141C26.406 26.7141 26.6869 26.4345 26.6869 26.0896M26.0625 26.7141L26.6869 26.0896M5.08344 25.4399H5.08356L26.0635 25.4651L5.08344 25.4399ZM5.08344 25.4399C3.69321 25.4399 2.56106 24.3078 2.56106 22.9176V1.93854C2.56106 1.5938 2.28132 1.31406 1.93658 1.31406C1.59185 1.31406 1.31211 1.5938 1.31211 1.93854V22.9176C1.31211 24.9972 3.00474 26.6888 5.08332 26.6889L5.08344 25.4399ZM26.6869 26.0896C26.6869 25.7462 26.4075 25.4652 26.0636 25.4651L26.6869 26.0896ZM6.57407 10.7725L6.57443 10.7722L11.2674 6.07918C11.6175 5.72907 12.1867 5.72907 12.5368 6.07917C12.5368 6.07917 12.5368 6.07918 12.5369 6.07918L15.6291 9.17252L15.6293 9.17268C16.4676 10.0077 17.8272 10.0077 18.6655 9.17268L18.6657 9.17253L25.4556 2.38057C25.6991 2.13698 25.6991 1.74115 25.4555 1.49755C25.2119 1.25395 24.8161 1.25395 24.5725 1.49755L17.7816 8.28846C17.4315 8.63857 16.8612 8.63857 16.5111 8.28846L13.4188 5.19615C12.5815 4.35884 11.2207 4.35884 10.3834 5.19615L5.69035 9.88916C5.44675 10.1328 5.44675 10.5286 5.69035 10.7722C5.81291 10.8948 5.97307 10.9546 6.13239 10.9546C6.29217 10.9546 6.45196 10.8934 6.57407 10.7725ZM6.55686 14.5511V21.8686C6.55686 22.2134 6.8366 22.4931 7.18134 22.4931C7.52608 22.4931 7.80582 22.2134 7.80582 21.8686V14.5511C7.80582 14.2064 7.52608 13.9267 7.18134 13.9267C6.8366 13.9267 6.55686 14.2064 6.55686 14.5511ZM11.8016 12.4532V21.8686C11.8016 22.2134 12.0814 22.4931 12.4261 22.4931C12.7708 22.4931 13.0506 22.2134 13.0506 21.8686V12.4532C13.0506 12.1085 12.7708 11.8287 12.4261 11.8287C12.0814 11.8287 11.8016 12.1085 11.8016 12.4532ZM17.0464 15.6001V21.8686C17.0464 22.2134 17.3261 22.4931 17.6708 22.4931C18.0156 22.4931 18.2953 22.2134 18.2953 21.8686V15.6001C18.2953 15.2553 18.0156 14.9756 17.6708 14.9756C17.3261 14.9756 17.0464 15.2553 17.0464 15.6001ZM22.2911 11.3791V21.8686C22.2911 22.2134 22.5709 22.4931 22.9156 22.4931C23.2603 22.4931 23.5401 22.2134 23.5401 21.8686V11.3791C23.5401 11.0344 23.2603 10.7546 22.9156 10.7546C22.5709 10.7546 22.2911 11.0344 22.2911 11.3791Z" fill="#FAFAFA" stroke="#FAFAFA" stroke-width="0.2"/>
</svg>
