<svg width="20" height="20" viewBox="0 0 20 20" fill="none" xmlns="http://www.w3.org/2000/svg">
<g clip-path="url(#clip0_6231_19197)">
<path d="M18.982 18.6254C18.982 18.8322 18.8134 19 18.6074 19L3.62238 18.982C2.17707 18.982 1 17.8057 1 16.3596V1.37463C1 1.16783 1.16783 1 1.37463 1C1.58142 1 1.74925 1.16783 1.74925 1.37463V16.3596C1.74925 17.3921 2.58991 18.2328 3.62238 18.2328L18.6081 18.2507C18.8142 18.2507 18.982 18.4193 18.982 18.6254Z" fill="#273C8D"/>
<path d="M4.74609 10.3836V15.6104C4.74609 15.8172 4.91393 15.985 5.12072 15.985C5.32751 15.985 5.49534 15.8172 5.49534 15.6104V10.3836C5.49534 10.1768 5.32751 10.009 5.12072 10.009C4.91393 10.009 4.74609 10.1768 4.74609 10.3836Z" fill="#273C8D"/>
<path d="M8.49219 8.88513V15.6104C8.49219 15.8172 8.66002 15.985 8.86681 15.985C9.07361 15.985 9.24144 15.8172 9.24144 15.6104V8.88513C9.24144 8.67833 9.07361 8.5105 8.86681 8.5105C8.66002 8.5105 8.49219 8.67833 8.49219 8.88513Z" fill="#273C8D"/>
<path d="M12.2393 11.133V15.6105C12.2393 15.8173 12.4071 15.9851 12.6139 15.9851C12.8207 15.9851 12.9885 15.8173 12.9885 15.6105V11.133C12.9885 10.9262 12.8207 10.7583 12.6139 10.7583C12.4071 10.7583 12.2393 10.9262 12.2393 11.133Z" fill="#273C8D"/>
<path d="M15.9854 8.11778V15.6103C15.9854 15.8171 16.1532 15.9849 16.36 15.9849C16.5668 15.9849 16.7347 15.8171 16.7347 15.6103V8.11778C16.7347 7.91099 16.5668 7.74316 16.36 7.74316C16.1532 7.74316 15.9854 7.91099 15.9854 8.11778Z" fill="#273C8D"/>
<path d="M4.37189 7.74319C4.46779 7.74319 4.5637 7.70647 4.63712 7.6338L7.98927 4.28165C8.26724 4.00368 8.71903 4.00368 8.997 4.28165L11.2058 6.49119C11.7768 7.05987 12.7028 7.05987 13.2738 6.49119L18.1237 1.63979C18.2698 1.49369 18.2698 1.25617 18.1237 1.11007C17.9776 0.963962 17.7401 0.963962 17.594 1.11007L12.7433 5.96072C12.4653 6.23869 12.0128 6.23869 11.7348 5.96072L9.52597 3.75193C8.95579 3.18175 8.02898 3.18175 7.4588 3.75193L4.10665 7.10408C3.96055 7.25018 3.96055 7.48769 4.10665 7.6338C4.18008 7.70722 4.27598 7.74319 4.37189 7.74319Z" fill="#273C8D"/>
<mask id="mask0_6231_19197" style="mask-type:luminance" maskUnits="userSpaceOnUse" x="0" y="0" width="20" height="20">
<path d="M20 0H0V20H20V0Z" fill="white"/>
<path d="M18.982 18.6254C18.982 18.8322 18.8134 19 18.6074 19L3.62238 18.982C2.17707 18.982 1 17.8057 1 16.3596V1.37463C1 1.16783 1.16783 1 1.37463 1C1.58142 1 1.74925 1.16783 1.74925 1.37463V16.3596C1.74925 17.3921 2.58991 18.2328 3.62238 18.2328L18.6081 18.2507C18.8142 18.2507 18.982 18.4193 18.982 18.6254Z" fill="black"/>
<path d="M4.74609 10.3836V15.6104C4.74609 15.8172 4.91393 15.985 5.12072 15.985C5.32751 15.985 5.49534 15.8172 5.49534 15.6104V10.3836C5.49534 10.1768 5.32751 10.009 5.12072 10.009C4.91393 10.009 4.74609 10.1768 4.74609 10.3836Z" fill="black"/>
<path d="M8.49219 8.88513V15.6104C8.49219 15.8172 8.66002 15.985 8.86681 15.985C9.07361 15.985 9.24144 15.8172 9.24144 15.6104V8.88513C9.24144 8.67833 9.07361 8.5105 8.86681 8.5105C8.66002 8.5105 8.49219 8.67833 8.49219 8.88513Z" fill="black"/>
<path d="M12.2393 11.133V15.6105C12.2393 15.8173 12.4071 15.9851 12.6139 15.9851C12.8207 15.9851 12.9885 15.8173 12.9885 15.6105V11.133C12.9885 10.9262 12.8207 10.7583 12.6139 10.7583C12.4071 10.7583 12.2393 10.9262 12.2393 11.133Z" fill="black"/>
<path d="M15.9854 8.11778V15.6103C15.9854 15.8171 16.1532 15.9849 16.36 15.9849C16.5668 15.9849 16.7347 15.8171 16.7347 15.6103V8.11778C16.7347 7.91099 16.5668 7.74316 16.36 7.74316C16.1532 7.74316 15.9854 7.91099 15.9854 8.11778Z" fill="black"/>
<path d="M4.37189 7.74319C4.46779 7.74319 4.5637 7.70647 4.63712 7.6338L7.98927 4.28165C8.26724 4.00368 8.71903 4.00368 8.997 4.28165L11.2058 6.49119C11.7768 7.05987 12.7028 7.05987 13.2738 6.49119L18.1237 1.63979C18.2698 1.49369 18.2698 1.25617 18.1237 1.11007C17.9776 0.963962 17.7401 0.963962 17.594 1.11007L12.7433 5.96072C12.4653 6.23869 12.0128 6.23869 11.7348 5.96072L9.52597 3.75193C8.95579 3.18175 8.02898 3.18175 7.4588 3.75193L4.10665 7.10408C3.96055 7.25018 3.96055 7.48769 4.10665 7.6338C4.18008 7.70722 4.27598 7.74319 4.37189 7.74319Z" fill="black"/>
</mask>
<g mask="url(#mask0_6231_19197)">
<path d="M4.63666 7.63392L4.77736 7.77606L4.77808 7.77534L4.63666 7.63392ZM18.7818 18.6255C18.7818 18.7216 18.703 18.8 18.6072 18.8L18.607 19.2001C18.9232 19.2001 19.1818 18.943 19.1818 18.6255H18.7818ZM18.6072 18.8L3.62242 18.782L3.62194 19.182L18.607 19.2001L18.6072 18.8ZM3.62242 18.782C2.28753 18.782 1.1998 17.6952 1.1998 16.3596H0.799805C0.799805 17.9162 2.06621 19.182 3.62194 19.182L3.62242 18.782ZM1.1998 16.3596V1.37468H0.799805V16.3596H1.1998ZM1.1998 1.37468C1.1998 1.27834 1.27809 1.20005 1.37443 1.20005V0.800049C1.05718 0.800049 0.799805 1.05743 0.799805 1.37468H1.1998ZM1.37443 1.20005C1.47076 1.20005 1.54905 1.27834 1.54905 1.37468H1.94905C1.94905 1.05743 1.69168 0.800049 1.37443 0.800049V1.20005ZM1.54905 1.37468V16.3596H1.94905V1.37468H1.54905ZM1.54905 16.3596C1.54905 17.5026 2.47925 18.4328 3.62218 18.4328L3.62242 18.0329C2.70041 18.0329 1.94905 17.2817 1.94905 16.3596H1.54905ZM3.62218 18.4328L18.6077 18.4508L18.6082 18.0507L3.62242 18.0329L3.62218 18.4328ZM18.6077 18.4508C18.7028 18.4508 18.7818 18.5294 18.7818 18.6255H19.1818C19.1818 18.3095 18.9253 18.0507 18.6082 18.0507L18.6077 18.4508ZM4.54605 10.3836V15.6104H4.94605V10.3836H4.54605ZM4.54605 15.6104C4.54605 15.9276 4.80343 16.185 5.12068 16.185V15.785C5.02434 15.785 4.94605 15.7067 4.94605 15.6104H4.54605ZM5.12068 16.185C5.43793 16.185 5.6953 15.9276 5.6953 15.6104H5.2953C5.2953 15.7067 5.21701 15.785 5.12068 15.785V16.185ZM5.6953 15.6104V10.3836H5.2953V15.6104H5.6953ZM5.6953 10.3836C5.6953 10.0664 5.43793 9.80904 5.12068 9.80904V10.209C5.21702 10.209 5.2953 10.2873 5.2953 10.3836H5.6953ZM5.12068 9.80904C4.80343 9.80904 4.54605 10.0664 4.54605 10.3836H4.94605C4.94605 10.2873 5.02434 10.209 5.12068 10.209V9.80904ZM8.29231 8.88517V15.6104H8.69231V8.88517H8.29231ZM8.29231 15.6104C8.29231 15.9276 8.54968 16.185 8.86693 16.185V15.785C8.7706 15.785 8.69231 15.7067 8.69231 15.6104H8.29231ZM8.86693 16.185C9.18418 16.185 9.44156 15.9276 9.44156 15.6104H9.04156C9.04156 15.7067 8.96327 15.785 8.86693 15.785V16.185ZM9.44156 15.6104V8.88517H9.04156V15.6104H9.44156ZM9.44156 8.88517C9.44156 8.56792 9.18418 8.31054 8.86693 8.31054V8.71054C8.96327 8.71054 9.04156 8.78883 9.04156 8.88517H9.44156ZM8.86693 8.31054C8.54968 8.31054 8.29231 8.56791 8.29231 8.88517H8.69231C8.69231 8.78883 8.7706 8.71054 8.86693 8.71054V8.31054ZM12.0386 11.1329V15.6104H12.4386V11.1329H12.0386ZM12.0386 15.6104C12.0386 15.9276 12.2959 16.185 12.6132 16.185V15.785C12.5168 15.785 12.4386 15.7067 12.4386 15.6104H12.0386ZM12.6132 16.185C12.9304 16.185 13.1878 15.9276 13.1878 15.6104H12.7878C12.7878 15.7067 12.7095 15.785 12.6132 15.785V16.185ZM13.1878 15.6104V11.1329H12.7878V15.6104H13.1878ZM13.1878 11.1329C13.1878 10.8156 12.9304 10.5582 12.6132 10.5582V10.9582C12.7095 10.9582 12.7878 11.0365 12.7878 11.1329H13.1878ZM12.6132 10.5582C12.2959 10.5582 12.0386 10.8156 12.0386 11.1329H12.4386C12.4386 11.0365 12.5168 10.9582 12.6132 10.9582V10.5582ZM15.7848 8.11793V15.6104H16.1848V8.11793H15.7848ZM15.7848 15.6104C15.7848 15.9276 16.0422 16.185 16.3594 16.185V15.785C16.2631 15.785 16.1848 15.7067 16.1848 15.6104H15.7848ZM16.3594 16.185C16.6767 16.185 16.9341 15.9276 16.9341 15.6104H16.5341C16.5341 15.7067 16.4558 15.785 16.3594 15.785V16.185ZM16.9341 15.6104V8.11793H16.5341V15.6104H16.9341ZM16.9341 8.11793C16.9341 7.80068 16.6767 7.54331 16.3594 7.54331V7.94331C16.4558 7.94331 16.5341 8.0216 16.5341 8.11793H16.9341ZM16.3594 7.54331C16.0422 7.54331 15.7848 7.80068 15.7848 8.11793H16.1848C16.1848 8.0216 16.2631 7.94331 16.3594 7.94331V7.54331ZM4.37143 7.94331C4.51837 7.94331 4.66532 7.88695 4.77736 7.77606L4.49597 7.49177C4.46115 7.52624 4.4163 7.54331 4.37143 7.54331V7.94331ZM4.77808 7.77534L8.13023 4.42319L7.84739 4.14035L4.49524 7.49249L4.77808 7.77534ZM8.13023 4.42319C8.3301 4.22332 8.65526 4.22332 8.85513 4.42319L9.138 4.14037C8.78193 3.78429 8.20347 3.78427 7.84739 4.14035L8.13023 4.42319ZM8.85513 4.42319L11.0639 6.63271L11.3468 6.34991L9.138 4.14037L8.85513 4.42319ZM11.0639 6.63271C11.7129 7.27912 12.7654 7.27942 13.4144 6.63301L13.1321 6.34961C12.6392 6.84056 11.8397 6.84086 11.3468 6.34991L11.0639 6.63271ZM13.4144 6.63301L18.2646 1.78131L17.9818 1.49849L13.1321 6.34961L13.4144 6.63301ZM18.2646 1.78131C18.4888 1.5571 18.4888 1.19298 18.2646 0.968767L17.9818 1.25161C18.0498 1.31961 18.0498 1.43049 17.9818 1.49849L18.2646 1.78131ZM18.2646 0.968767C18.0404 0.744557 17.6762 0.744559 17.452 0.968767L17.7349 1.25161C17.8029 1.18361 17.9138 1.18361 17.9818 1.25161L18.2646 0.968767ZM17.452 0.968767L12.6014 5.81942L12.8842 6.10226L17.7349 1.25161L17.452 0.968767ZM12.6014 5.81942C12.4015 6.01929 12.0756 6.01929 11.8757 5.81942L11.5929 6.10226C11.949 6.45834 12.5282 6.45834 12.8842 6.10226L12.6014 5.81942ZM11.8757 5.81942L9.66694 3.61063L9.3841 3.89347L11.5929 6.10226L11.8757 5.81942ZM9.66694 3.61063C9.01866 2.96234 7.9652 2.96234 7.31692 3.61063L7.59976 3.89347C8.09184 3.40139 8.89203 3.40139 9.3841 3.89347L9.66694 3.61063ZM7.31692 3.61063L3.96477 6.96278L4.24761 7.24562L7.59976 3.89347L7.31692 3.61063ZM3.96477 6.96278C3.74056 7.18698 3.74056 7.55113 3.96477 7.77534L4.24761 7.49249C4.17962 7.4245 4.17962 7.31362 4.24761 7.24562L3.96477 6.96278ZM3.96477 7.77534C4.07773 7.8883 4.22542 7.94331 4.37143 7.94331V7.54331C4.32563 7.54331 4.28151 7.52639 4.24761 7.49249L3.96477 7.77534Z" fill="#273C8D"/>
</g>
</g>
<defs>
<clipPath id="clip0_6231_19197">
<rect width="20" height="20" fill="white"/>
</clipPath>
</defs>
</svg>
