<svg width="20" height="20" viewBox="0 0 20 20" fill="none" xmlns="http://www.w3.org/2000/svg">
<path fill-rule="evenodd" clip-rule="evenodd" d="M18.7501 10.0001C18.7501 9.8343 18.6843 9.67533 18.5671 9.55812C18.4499 9.44091 18.2909 9.37506 18.1251 9.37506H3.38389L7.31764 5.44256C7.37575 5.38445 7.42185 5.31546 7.45329 5.23954C7.48474 5.16361 7.50093 5.08224 7.50093 5.00006C7.50093 4.91788 7.48474 4.8365 7.45329 4.76058C7.42185 4.68465 7.37575 4.61567 7.31764 4.55756C7.25953 4.49945 7.19054 4.45335 7.11462 4.4219C7.0387 4.39045 6.95732 4.37427 6.87514 4.37427C6.79296 4.37427 6.71159 4.39045 6.63566 4.4219C6.55974 4.45335 6.49075 4.49945 6.43264 4.55756L1.43264 9.55756C1.37444 9.61561 1.32826 9.68458 1.29675 9.76052C1.26524 9.83645 1.24902 9.91785 1.24902 10.0001C1.24902 10.0823 1.26524 10.1637 1.29675 10.2396C1.32826 10.3155 1.37444 10.3845 1.43264 10.4426L6.43264 15.4426C6.49075 15.5007 6.55974 15.5468 6.63566 15.5782C6.71159 15.6097 6.79296 15.6258 6.87514 15.6258C6.95732 15.6258 7.0387 15.6097 7.11462 15.5782C7.19054 15.5468 7.25953 15.5007 7.31764 15.4426C7.37575 15.3844 7.42185 15.3155 7.45329 15.2395C7.48474 15.1636 7.50093 15.0822 7.50093 15.0001C7.50093 14.9179 7.48474 14.8365 7.45329 14.7606C7.42185 14.6847 7.37575 14.6157 7.31764 14.5576L3.38389 10.6251H18.1251C18.2909 10.6251 18.4499 10.5592 18.5671 10.442C18.6843 10.3248 18.7501 10.1658 18.7501 10.0001Z" fill="#273C8D"/>
</svg>
