<svg width="20" height="21" viewBox="0 0 20 21" fill="none" xmlns="http://www.w3.org/2000/svg">
<g clip-path="url(#clip0_3130_19968)">
<path d="M13.75 8.625C13.75 8.45924 13.8158 8.30027 13.9331 8.18306C14.0503 8.06585 14.2092 8 14.375 8H15.625C15.7908 8 15.9497 8.06585 16.0669 8.18306C16.1842 8.30027 16.25 8.45924 16.25 8.625V9.875C16.25 10.0408 16.1842 10.1997 16.0669 10.3169C15.9497 10.4342 15.7908 10.5 15.625 10.5H14.375C14.2092 10.5 14.0503 10.4342 13.9331 10.3169C13.8158 10.1997 13.75 10.0408 13.75 9.875V8.625ZM10 8.625C10 8.45924 10.0658 8.30027 10.1831 8.18306C10.3003 8.06585 10.4592 8 10.625 8H11.875C12.0408 8 12.1997 8.06585 12.3169 8.18306C12.4342 8.30027 12.5 8.45924 12.5 8.625V9.875C12.5 10.0408 12.4342 10.1997 12.3169 10.3169C12.1997 10.4342 12.0408 10.5 11.875 10.5H10.625C10.4592 10.5 10.3003 10.4342 10.1831 10.3169C10.0658 10.1997 10 10.0408 10 9.875V8.625ZM3.75 12.375C3.75 12.2092 3.81585 12.0503 3.93306 11.9331C4.05027 11.8158 4.20924 11.75 4.375 11.75H5.625C5.79076 11.75 5.94973 11.8158 6.06694 11.9331C6.18415 12.0503 6.25 12.2092 6.25 12.375V13.625C6.25 13.7908 6.18415 13.9497 6.06694 14.0669C5.94973 14.1842 5.79076 14.25 5.625 14.25H4.375C4.20924 14.25 4.05027 14.1842 3.93306 14.0669C3.81585 13.9497 3.75 13.7908 3.75 13.625V12.375ZM7.5 12.375C7.5 12.2092 7.56585 12.0503 7.68306 11.9331C7.80027 11.8158 7.95924 11.75 8.125 11.75H9.375C9.54076 11.75 9.69973 11.8158 9.81694 11.9331C9.93415 12.0503 10 12.2092 10 12.375V13.625C10 13.7908 9.93415 13.9497 9.81694 14.0669C9.69973 14.1842 9.54076 14.25 9.375 14.25H8.125C7.95924 14.25 7.80027 14.1842 7.68306 14.0669C7.56585 13.9497 7.5 13.7908 7.5 13.625V12.375Z" fill="#636977"/>
<path d="M4.375 0.5C4.54076 0.5 4.69973 0.565848 4.81694 0.683058C4.93415 0.800269 5 0.95924 5 1.125V1.75H15V1.125C15 0.95924 15.0658 0.800269 15.1831 0.683058C15.3003 0.565848 15.4592 0.5 15.625 0.5C15.7908 0.5 15.9497 0.565848 16.0669 0.683058C16.1842 0.800269 16.25 0.95924 16.25 1.125V1.75H17.5C18.163 1.75 18.7989 2.01339 19.2678 2.48223C19.7366 2.95107 20 3.58696 20 4.25V18C20 18.663 19.7366 19.2989 19.2678 19.7678C18.7989 20.2366 18.163 20.5 17.5 20.5H2.5C1.83696 20.5 1.20107 20.2366 0.732233 19.7678C0.263392 19.2989 0 18.663 0 18V4.25C0 3.58696 0.263392 2.95107 0.732233 2.48223C1.20107 2.01339 1.83696 1.75 2.5 1.75H3.75V1.125C3.75 0.95924 3.81585 0.800269 3.93306 0.683058C4.05027 0.565848 4.20924 0.5 4.375 0.5ZM1.25 5.5V18C1.25 18.3315 1.3817 18.6495 1.61612 18.8839C1.85054 19.1183 2.16848 19.25 2.5 19.25H17.5C17.8315 19.25 18.1495 19.1183 18.3839 18.8839C18.6183 18.6495 18.75 18.3315 18.75 18V5.5H1.25Z" fill="#636977"/>
</g>
<defs>
<clipPath id="clip0_3130_19968">
<rect width="20" height="20" fill="white" transform="translate(0 0.5)"/>
</clipPath>
</defs>
</svg>
