<svg width="12" height="13" viewBox="0 0 12 13" fill="none" xmlns="http://www.w3.org/2000/svg">
<path fill-rule="evenodd" clip-rule="evenodd" d="M3.48419 1.73419C3.51903 1.69927 3.56041 1.67156 3.60597 1.65266C3.65153 1.63375 3.70037 1.62402 3.74969 1.62402C3.79902 1.62402 3.84786 1.63375 3.89342 1.65266C3.93898 1.67156 3.98036 1.69927 4.01519 1.73419L8.51519 6.23419C8.55012 6.26903 8.57782 6.31041 8.59673 6.35597C8.61563 6.40153 8.62536 6.45037 8.62536 6.49969C8.62536 6.54902 8.61563 6.59786 8.59673 6.64342C8.57782 6.68898 8.55012 6.73036 8.51519 6.76519L4.01519 11.2652C3.94478 11.3356 3.84928 11.3752 3.74969 11.3752C3.65011 11.3752 3.55461 11.3356 3.48419 11.2652C3.41378 11.1948 3.37422 11.0993 3.37422 10.9997C3.37422 10.9001 3.41378 10.8046 3.48419 10.7342L7.71944 6.49969L3.48419 2.26519C3.44927 2.23036 3.42156 2.18898 3.40266 2.14342C3.38375 2.09786 3.37402 2.04902 3.37402 1.99969C3.37402 1.95037 3.38375 1.90153 3.40266 1.85597C3.42156 1.81041 3.44927 1.76903 3.48419 1.73419V1.73419Z" fill="#636977"/>
</svg>
