<svg width="32" height="32" viewBox="0 0 32 32" fill="none" xmlns="http://www.w3.org/2000/svg">
<path d="M29.1129 13.4833C28.7764 11.5423 27.0959 10.0583 25.0625 10.0583H19.9954L22.3335 12.3212L29.1129 13.4833ZM29.1129 13.4833H25.2063C24.1291 13.4833 23.1088 13.0705 22.3335 12.3213L29.1129 13.4833ZM18.2083 8.32656C17.8375 7.96728 17.4026 7.72063 16.9438 7.5784L20.7703 5.73955L20.7706 5.74008L20.7798 5.73432C21.2539 5.43935 21.5375 4.92873 21.5375 4.36979C21.5375 3.80837 21.2517 3.2974 20.7152 2.96865L20.7155 2.96811L20.7053 2.96334L17.8053 1.60638L17.8053 1.60637C17.513 1.46971 17.2001 1.4 16.8797 1.4C15.6742 1.4 14.6917 2.38115 14.6917 3.58679V7.71955C14.3694 7.86629 14.0637 8.06399 13.7918 8.32643L13.7916 8.3266L13.4582 8.65H6.9375C3.8844 8.65 1.4 11.1344 1.4 14.1875V26.2708C1.4 28.6581 3.34185 30.6 5.72917 30.6H26.2708C28.6581 30.6 30.6 28.6581 30.6 26.2708V14.1875C30.6 11.1344 28.1156 8.65 25.0625 8.65H18.5418L18.2084 8.3266L18.2083 8.32656ZM16.1012 3.54313C16.1239 3.13414 16.4638 2.80833 16.8797 2.80833C16.993 2.80833 17.1042 2.83287 17.2093 2.88223L17.2096 2.88235L20.0396 4.20148C20.1205 4.2546 20.1304 4.33561 20.1304 4.36979C20.1304 4.39278 20.1266 4.42772 20.117 4.45972C20.1087 4.4876 20.0993 4.50225 20.0937 4.50857L16.1012 6.42338V3.58679V3.54313ZM17.763 1.69695L17.763 1.69694L17.763 1.69695ZM6.7925 13.4833H2.88711C3.22361 11.5423 4.90413 10.0583 6.9375 10.0583H12.0034L9.66525 12.3213L9.66524 12.3213C8.89124 13.0705 7.87098 13.4833 6.7925 13.4833ZM17.2281 9.33888L17.2282 9.33903L21.3547 13.3326C22.3931 14.3378 23.7605 14.8917 25.2063 14.8917H29.1917V26.2708C29.1917 27.8807 27.8819 29.1917 26.2708 29.1917H19.725V22.0417C19.725 19.9879 18.0538 18.3167 16 18.3167C13.9462 18.3167 12.275 19.9879 12.275 22.0417V29.1917H5.72917C4.11813 29.1917 2.80833 27.8807 2.80833 26.2708V14.8917H6.79371C8.23948 14.8917 9.60687 14.3378 10.6453 13.3326L14.7718 9.33906C15.4629 8.67078 16.5408 8.67102 17.2281 9.33888ZM18.3167 29.1917H13.6833V22.0417C13.6833 20.7641 14.7224 19.725 16 19.725C17.2776 19.725 18.3167 20.7641 18.3167 22.0417V29.1917ZM9.35417 20.9333C9.7429 20.9333 10.0583 20.6179 10.0583 20.2292C10.0583 19.8404 9.7429 19.525 9.35417 19.525H6.9375C6.54877 19.525 6.23333 19.8404 6.23333 20.2292C6.23333 20.6179 6.54877 20.9333 6.9375 20.9333H9.35417ZM9.35417 25.7667C9.7429 25.7667 10.0583 25.4512 10.0583 25.0625C10.0583 24.6738 9.7429 24.3583 9.35417 24.3583H6.9375C6.54877 24.3583 6.23333 24.6738 6.23333 25.0625C6.23333 25.4512 6.54877 25.7667 6.9375 25.7667H9.35417ZM25.0625 20.9333C25.4512 20.9333 25.7667 20.6179 25.7667 20.2292C25.7667 19.8404 25.4512 19.525 25.0625 19.525H22.6458C22.2571 19.525 21.9417 19.8404 21.9417 20.2292C21.9417 20.6179 22.2571 20.9333 22.6458 20.9333H25.0625ZM25.0625 25.7667C25.4512 25.7667 25.7667 25.4512 25.7667 25.0625C25.7667 24.6738 25.4512 24.3583 25.0625 24.3583H22.6458C22.2571 24.3583 21.9417 24.6738 21.9417 25.0625C21.9417 25.4512 22.2571 25.7667 22.6458 25.7667H25.0625ZM16 14.8917C16.7222 14.8917 17.3083 14.3056 17.3083 13.5833C17.3083 12.8611 16.7222 12.275 16 12.275C15.2778 12.275 14.6917 12.8611 14.6917 13.5833C14.6917 14.3056 15.2778 14.8917 16 14.8917Z" fill="#FAFAFA" stroke="#FAFAFA" stroke-width="0.2"/>
</svg>
