<svg width="32" height="33" viewBox="0 0 32 33" fill="none" xmlns="http://www.w3.org/2000/svg">
<path d="M14.5927 18.4456L14.5922 18.4455C14.1512 18.3825 13.6992 18.35 13.25 18.35C8.06616 18.35 3.85 22.5662 3.85 27.75V28C3.85 28.3588 4.14116 28.65 4.5 28.65C4.85884 28.65 5.15 28.3588 5.15 28V27.75C5.15 23.2838 8.78384 19.65 13.25 19.65C13.6378 19.65 14.0265 19.6775 14.4071 19.7324C14.7707 19.7869 15.0931 19.534 15.1435 19.1812C15.1942 18.826 14.9471 18.4975 14.5927 18.4456ZM28.15 21.5C28.15 19.8118 26.8148 18.4294 25.1451 18.3533C25.0694 17.2357 24.1365 16.35 23 16.35H21C19.8635 16.35 18.9306 17.2357 18.8549 18.3533C17.1852 18.4294 15.85 19.8118 15.85 21.5V25.5C15.85 27.2368 17.2632 28.65 19 28.65H25C26.7368 28.65 28.15 27.2368 28.15 25.5V21.5ZM21 17.65H23C23.417 17.65 23.7655 17.9529 23.8367 18.35H20.1633C20.2345 17.9529 20.583 17.65 21 17.65ZM26.85 25.5C26.85 26.5202 26.0202 27.35 25 27.35H19C17.9798 27.35 17.15 26.5202 17.15 25.5V23.65H21.35V25C21.35 25.3588 21.6412 25.65 22 25.65C22.3588 25.65 22.65 25.3588 22.65 25V23.65H26.85V25.5ZM26.85 22.35H17.15V21.5C17.15 20.4798 17.9798 19.65 19 19.65H25C26.0202 19.65 26.85 20.4798 26.85 21.5V22.35ZM13 16.65C16.3918 16.65 19.15 13.8918 19.15 10.5C19.15 7.10816 16.3918 4.35 13 4.35C9.60816 4.35 6.85 7.10816 6.85 10.5C6.85 13.8918 9.60816 16.65 13 16.65ZM13 5.65C15.6742 5.65 17.85 7.82584 17.85 10.5C17.85 13.1742 15.6742 15.35 13 15.35C10.3258 15.35 8.15 13.1742 8.15 10.5C8.15 7.82584 10.3258 5.65 13 5.65Z" fill="#FAFAFA" stroke="#FAFAFA" stroke-width="0.3"/>
</svg>
