<svg width="20" height="20" viewBox="0 0 20 20" fill="none" xmlns="http://www.w3.org/2000/svg">
<path d="M0.85 10.0023V10.0027C0.851618 10.5472 1.06558 11.0589 1.45428 11.4412C1.45429 11.4412 1.45431 11.4412 1.45433 11.4412L4.56048 14.4986C4.66256 14.5996 4.79627 14.65 4.92925 14.65C5.06476 14.65 5.20029 14.5974 5.30285 14.4938L5.30313 14.4935C5.50603 14.2874 5.50375 13.9547 5.297 13.7511L5.29697 13.7511L2.19066 10.6935C2.19065 10.6935 2.19065 10.6935 2.19064 10.6935C2.13891 10.6424 2.09421 10.5861 2.05626 10.5258H14.125C14.4148 10.5258 14.65 10.2906 14.65 10.0008C14.65 9.71091 14.4148 9.47575 14.125 9.47575H2.05394C2.09243 9.41357 2.13801 9.3559 2.1911 9.30378L2.19117 9.3037L5.29672 6.2499L5.29692 6.2497L5.19175 6.14275C5.3395 5.998 5.34175 5.76025 5.19625 5.6125L0.85 10.0023ZM0.85 10.0023V10.0022V10.0022V10.0022V10.0022V10.0022V10.0021V10.0021V10.0021V10.0021V10.0021V10.0021V10.002V10.002V10.002V10.002V10.002V10.002V10.0019V10.0019V10.0019V10.0019V10.0019V10.0019V10.0018V10.0018V10.0018V10.0018V10.0018V10.0018V10.0017V10.0017V10.0017V10.0017V10.0017V10.0017V10.0016V10.0016V10.0016V10.0016V10.0016V10.0016V10.0015V10.0015V10.0015V10.0015V10.0015V10.0015V10.0014V10.0014V10.0014V10.0014V10.0014V10.0013V10.0013V10.0013V10.0013V10.0013V10.0013V10.0012V10.0012V10.0012V10.0012V10.0012V10.0012V10.0011V10.0011V10.0011V10.0011V10.0011V10.0011V10.001V10.001V10.001V10.001V10.001V10.0009V10.0009V10.0009V10.0009V10.0009V10.0009V10.0008V10.0008V10.0008V10.0008V10.0008V10.0008V10.0008V10.0007V10.0007V10.0007V10.0007V10.0007V10.0007V10.0006V10.0006V10.0006V10.0006V10.0006V10.0006V10.0005V10.0005V10.0005V10.0005V10.0005V10.0004V10.0004V10.0004V10.0004V10.0004V10.0004V10.0003V10.0003V10.0003V10.0003V10.0003V10.0003V10.0002V10.0002V10.0002V10.0002V10.0002V10.0002V10.0001V10.0001V10.0001V10.0001V10.0001V10.0001V10V10V10V10V9.99998V9.99996V9.99995V9.99993V9.99991V9.9999V9.99988V9.99986V9.99984V9.99982V9.99981V9.99979V9.99977V9.99975V9.99974V9.99972V9.9997V9.99969V9.99967V9.99965V9.99963V9.99962V9.9996V9.99958V9.99957V9.99955V9.99953V9.99952V9.9995V9.99948V9.99947V9.99945V9.99943V9.99942V9.9994V9.99938V9.99937V9.99935V9.99934V9.99932V9.9993V9.99929V9.99927V9.99926V9.99924V9.99923V9.99921V9.9992V9.99918V9.99917V9.99915V9.99913V9.99911V9.9991V9.99908V9.99906V9.99904V9.99903V9.99901V9.99899V9.99898V9.99896V9.99894V9.99893V9.99891V9.9989V9.99888V9.99887V9.99885V9.99883V9.99882V9.9988V9.99878V9.99877V9.99875V9.99874V9.99872V9.9987V9.99869V9.99867V9.99866V9.99864V9.99862V9.99861V9.99859V9.99858V9.99856V9.99855V9.99853V9.99852V9.9985C0.85 9.45113 1.06575 8.9387 1.45496 8.55516L1.45508 8.55505L4.56075 5.50112C4.76715 5.29787 5.10006 5.29927 5.30335 5.50748L0.85 10.0023ZM10.375 12.1C10.6648 12.1 10.9 12.3352 10.9 12.625V15.625C10.9 16.9897 12.0103 18.1 13.375 18.1H15.625C16.9897 18.1 18.1 16.9897 18.1 15.625V4.375C18.1 3.01034 16.9897 1.9 15.625 1.9H13.375C12.0103 1.9 10.9 3.01034 10.9 4.375V7.375C10.9 7.66484 10.6648 7.9 10.375 7.9C10.0852 7.9 9.85 7.66484 9.85 7.375V4.375C9.85 2.43141 11.4314 0.85 13.375 0.85H15.625C17.5686 0.85 19.15 2.43141 19.15 4.375V15.625C19.15 17.5686 17.5686 19.15 15.625 19.15H13.375C11.4314 19.15 9.85 17.5686 9.85 15.625V12.625C9.85 12.3352 10.0852 12.1 10.375 12.1Z" fill="#273C8D" stroke="#273C8D" stroke-width="0.3"/>
</svg>
