<svg width="28" height="28" viewBox="0 0 28 28" fill="none" xmlns="http://www.w3.org/2000/svg">
<path d="M1.24961 14.0035V14.0031V14.003V14.003V14.003V14.003V14.003V14.0029V14.0029V14.0029V14.0029V14.0029V14.0028V14.0028V14.0028V14.0028V14.0028V14.0027V14.0027V14.0027V14.0027V14.0026V14.0026V14.0026V14.0026V14.0026V14.0026V14.0025V14.0025V14.0025V14.0025V14.0025V14.0025V14.0024V14.0024V14.0024V14.0024V14.0024V14.0024V14.0023V14.0023V14.0023V14.0023V14.0023V14.0023V14.0023V14.0022V14.0022V14.0022V14.0022V14.0022V14.0022V14.0021V14.0021V14.0021V14.0021V14.0021V14.0021V14.002V14.002V14.002V14.002V14.002V14.002V14.0019V14.0019V14.0019V14.0019V14.0019V14.0019V14.0018V14.0018V14.0018V14.0018V14.0018V14.0018V14.0018V14.0017V14.0017V14.0017V14.0017V14.0017V14.0017V14.0016V14.0016V14.0016V14.0016V14.0016V14.0016V14.0015V14.0015V14.0015V14.0015V14.0015V14.0015V14.0014V14.0014V14.0014V14.0014V14.0014V14.0014V14.0013V14.0013V14.0013V14.0013V14.0013V14.0013V14.0012V14.0012V14.0012V14.0012V14.0012V14.0012V14.0012V14.0011V14.0011V14.0011V14.0011V14.0011V14.0011V14.001V14.001V14.001V14.001V14.001V14.001V14.0009V14.0009V14.0009V14.0009V14.0009V14.0008V14.0008V14.0008V14.0008V14.0008V14.0007V14.0007V14.0007V14.0007V14.0007V14.0006V14.0006V14.0006V14.0006V14.0006V14.0005V14.0005V14.0005V14.0005V14.0005V14.0004V14.0004V14.0004V14.0004V14.0004V14.0004V14.0003V14.0003V14.0003V14.0003V14.0003V14.0003V14.0002V14.0002V14.0002V14.0002V14.0002V14.0002V14.0001V14.0001V14.0001V14.0001V14.0001V14.0001V14V14V14V14V14V14V13.9999V13.9999V13.9999V13.9999V13.9999V13.9998V13.9998V13.9998V13.9998V13.9998V13.9998V13.9997V13.9997V13.9997V13.9997V13.9997V13.9996V13.9996V13.9996V13.9996V13.9996V13.9996V13.9995V13.9995V13.9995V13.9995V13.9995V13.9994V13.9994V13.9994V13.9994V13.9994V13.9994V13.9993V13.9993V13.9993V13.9993V13.9993V13.9992V13.9992V13.9992V13.9992V13.9992V13.9992V13.9991V13.9991V13.9991V13.9991V13.9991V13.9991V13.999V13.999V13.999V13.999V13.999V13.999V13.9989V13.9989V13.9989V13.9989V13.9989V13.9989V13.9988V13.9988V13.9988V13.9988V13.9988V13.9988V13.9987V13.9987V13.9987V13.9987V13.9987V13.9987V13.9987V13.9986V13.9986V13.9986V13.9986V13.9986V13.9986V13.9985V13.9985V13.9985V13.9985V13.9985V13.9984V13.9984V13.9984V13.9984V13.9984V13.9984V13.9983V13.9983V13.9983V13.9983V13.9983V13.9983V13.9982V13.9982V13.9982V13.9982V13.9982V13.9982V13.9981V13.9981V13.9981V13.9981V13.9981V13.9981V13.998V13.998V13.998V13.998V13.998V13.998V13.9979V13.9979V13.9979V13.9979V13.9979V13.9979V13.9978V13.9978V13.9978V13.9978C1.24961 13.2476 1.54516 12.5456 2.07867 12.0199L2.07879 12.0197L6.42676 7.74423C6.69218 7.48285 7.12002 7.48477 7.38123 7.75215C7.64313 8.0181 7.6392 8.44614 7.37303 8.7069L3.02518 12.9823L3.0251 12.9824C2.92157 13.084 2.83775 13.1998 2.77201 13.326H19.7746C20.1473 13.326 20.4496 13.6283 20.4496 14.001C20.4496 14.3736 20.1473 14.676 19.7746 14.676H2.77448C2.8398 14.7993 2.92273 14.9131 3.02434 15.0135C3.02435 15.0135 3.02436 15.0135 3.02437 15.0135L7.37328 19.2942L7.37331 19.2942C7.63916 19.556 7.64203 19.9838 7.38124 20.2487L7.38096 20.249C7.249 20.3823 7.07477 20.4499 6.90056 20.4499C6.72954 20.4499 6.5578 20.3852 6.42664 20.2555C6.42659 20.2554 6.42654 20.2554 6.42649 20.2553L2.07774 15.9748C2.07772 15.9748 2.0777 15.9748 2.07768 15.9748C1.54498 15.4509 1.25183 14.75 1.24961 14.0035ZM14.5246 16.9999C14.8973 16.9999 15.1996 17.3023 15.1996 17.6749V21.8749C15.1996 23.8186 16.781 25.3999 18.7246 25.3999H21.8746C23.8183 25.3999 25.3996 23.8186 25.3996 21.8749V6.1249C25.3996 4.18125 23.8183 2.5999 21.8746 2.5999H18.7246C16.781 2.5999 15.1996 4.18125 15.1996 6.1249V10.3249C15.1996 10.6975 14.8973 10.9999 14.5246 10.9999C14.152 10.9999 13.8496 10.6975 13.8496 10.3249V6.1249C13.8496 3.43701 16.0367 1.2499 18.7246 1.2499H21.8746C24.5625 1.2499 26.7496 3.43701 26.7496 6.1249V21.8749C26.7496 24.5628 24.5625 26.7499 21.8746 26.7499H18.7246C16.0367 26.7499 13.8496 24.5628 13.8496 21.8749V17.6749C13.8496 17.3023 14.152 16.9999 14.5246 16.9999Z" fill="#273C8D" stroke="#273C8D" stroke-width="0.3"/>
</svg>
