<svg width="28" height="28" viewBox="0 0 28 28" fill="none" xmlns="http://www.w3.org/2000/svg">
<path d="M4.14672 22.1942L4.1465 22.1943C3.84017 22.3974 3.48704 22.5007 3.13267 22.5007C2.83628 22.5007 2.53971 22.4297 2.26764 22.2842M4.14672 22.1942L23.855 26.3938C24.1606 26.5983 24.515 26.7004 24.869 26.7004C25.1654 26.7004 25.462 26.6293 25.7331 26.4838C26.3294 26.164 26.6993 25.5453 26.6993 24.8701V10.3246C26.6993 7.66458 24.5347 5.50004 21.8747 5.50004H20.359C20.0511 3.13374 18.0236 1.30039 15.5752 1.30039H6.12597C3.46591 1.30039 1.30137 3.46494 1.30137 6.125V20.6705C1.30137 21.3456 1.67118 21.9654 2.26764 22.2842M4.14672 22.1942L7.72422 19.8085C8.21788 21.9478 10.1384 23.5475 12.4254 23.5475H19.586L23.8548 26.3937L4.14672 22.1942ZM2.26764 22.2842L2.31479 22.196L2.26766 22.2842C2.26765 22.2842 2.26764 22.2842 2.26764 22.2842ZM25.1431 25.3825L25.1433 25.3824C25.3352 25.2802 25.4494 25.0895 25.4494 24.8712V10.3246C25.4494 8.35354 23.8458 6.74995 21.8747 6.74995H20.3998V14.5243C20.3998 17.1844 18.2352 19.3489 15.5752 19.3489H8.90582C9.20187 21.0231 10.6679 22.2986 12.4254 22.2986H19.7748C19.8972 22.2986 20.0184 22.3348 20.1211 22.4036L25.1431 25.3825ZM25.1431 25.3825C24.9481 25.4867 24.7301 25.4754 24.5462 25.3547C24.5461 25.3547 24.546 25.3546 24.5459 25.3546L20.1214 22.4038L25.1431 25.3825ZM11.435 4.501C9.73559 4.20038 8.08142 5.25589 7.65485 6.87201L7.64877 6.86592L7.61222 7.04933C7.54479 7.38772 7.7622 7.71633 8.10057 7.78625L8.10099 7.78633C8.44073 7.85503 8.76954 7.63626 8.83826 7.29769L8.83826 7.29768C9.0516 6.24591 10.1132 5.53837 11.2186 5.73108C12.0191 5.87184 12.6765 6.53014 12.8173 7.33184L12.8173 7.33193C12.9706 8.20073 12.5764 9.03174 11.8144 9.45173L11.8144 9.45176L11.8049 9.45697C11.2707 9.75174 10.2256 10.3284 10.2256 11.636C10.2256 11.981 10.5056 12.2609 10.8506 12.2609C11.1956 12.2609 11.4755 11.981 11.4755 11.636C11.4755 11.4183 11.5293 11.2514 11.6668 11.0888C11.8088 10.9207 12.0437 10.7528 12.4181 10.5466L12.4181 10.5466C13.637 9.87374 14.292 8.49381 14.0495 7.11558C13.8196 5.8038 12.7447 4.72986 11.435 4.501ZM11.435 4.501L11.4175 4.59947L11.4347 4.50097C11.4348 4.50098 11.4349 4.50099 11.435 4.501ZM3.45306 21.1553L3.45269 21.1555C3.27175 21.2774 3.05023 21.2873 2.85801 21.1831L2.85737 21.1828C2.66546 21.0805 2.55128 20.8899 2.55128 20.6715V6.125C2.55128 4.15389 4.15487 2.5503 6.12597 2.5503H15.5752C17.5463 2.5503 19.1499 4.15389 19.1499 6.125V14.5243C19.1499 16.4954 17.5463 18.099 15.5752 18.099H8.2258C8.11762 18.099 8.03084 18.125 7.96984 18.1521C7.93938 18.1656 7.91528 18.1794 7.89798 18.1905C7.88464 18.1991 7.87501 18.2063 7.87134 18.2091L3.45306 21.1553ZM10.8506 16.1992C11.4854 16.1992 12.0005 15.684 12.0005 15.0493C12.0005 14.4145 11.4854 13.8993 10.8506 13.8993C10.2158 13.8993 9.70067 14.4145 9.70067 15.0493C9.70067 15.684 10.2158 16.1992 10.8506 16.1992Z" fill="#FAFAFA" stroke="#FAFAFA" stroke-width="0.2"/>
</svg>
