<svg width="32" height="32" viewBox="0 0 32 32" fill="none" xmlns="http://www.w3.org/2000/svg">
<path d="M21.4375 22.1417C21.8262 22.1417 22.1417 21.8262 22.1417 21.4375C22.1417 21.0488 21.8262 20.7333 21.4375 20.7333H15.3958C15.0071 20.7333 14.6917 21.0488 14.6917 21.4375C14.6917 21.8262 15.0071 22.1417 15.3958 22.1417H21.4375ZM26.975 25.0625V9.35417C26.975 6.30106 24.4906 3.81667 21.4375 3.81667H20.8534C20.5326 2.43362 19.2924 1.4 17.8125 1.4H14.1875C12.7077 1.4 11.4663 2.43354 11.1465 3.81667H10.5625C7.5094 3.81667 5.025 6.30106 5.025 9.35417V25.0625C5.025 28.1156 7.5094 30.6 10.5625 30.6H21.4375C24.4906 30.6 26.975 28.1156 26.975 25.0625ZM21.4375 5.225C23.7144 5.225 25.5667 7.07731 25.5667 9.35417V25.0625C25.5667 27.3394 23.7144 29.1917 21.4375 29.1917H10.5625C8.28565 29.1917 6.43333 27.3394 6.43333 25.0625V9.35417C6.43333 7.07731 8.28565 5.225 10.5625 5.225H11.7708C12.1596 5.225 12.475 4.90956 12.475 4.52083C12.475 3.57677 13.2434 2.80833 14.1875 2.80833H17.8125C18.7566 2.80833 19.525 3.57677 19.525 4.52083C19.525 4.90956 19.8404 5.225 20.2292 5.225H21.4375ZM11.1667 20.1292C10.4444 20.1292 9.85833 20.7153 9.85833 21.4375C9.85833 22.1597 10.4444 22.7458 11.1667 22.7458C11.8889 22.7458 12.475 22.1597 12.475 21.4375C12.475 20.7153 11.8889 20.1292 11.1667 20.1292ZM21.4375 15.9H15.3958C15.0071 15.9 14.6917 16.2154 14.6917 16.6042C14.6917 16.9929 15.0071 17.3083 15.3958 17.3083H21.4375C21.8262 17.3083 22.1417 16.9929 22.1417 16.6042C22.1417 16.2154 21.8262 15.9 21.4375 15.9ZM11.1667 15.2958C10.4444 15.2958 9.85833 15.8819 9.85833 16.6042C9.85833 17.3264 10.4444 17.9125 11.1667 17.9125C11.8889 17.9125 12.475 17.3264 12.475 16.6042C12.475 15.8819 11.8889 15.2958 11.1667 15.2958ZM21.4375 11.0667H15.3958C15.0071 11.0667 14.6917 11.3821 14.6917 11.7708C14.6917 12.1596 15.0071 12.475 15.3958 12.475H21.4375C21.8262 12.475 22.1417 12.1596 22.1417 11.7708C22.1417 11.3821 21.8262 11.0667 21.4375 11.0667ZM11.1667 10.4625C10.4444 10.4625 9.85833 11.0486 9.85833 11.7708C9.85833 12.4931 10.4444 13.0792 11.1667 13.0792C11.8889 13.0792 12.475 12.4931 12.475 11.7708C12.475 11.0486 11.8889 10.4625 11.1667 10.4625Z" fill="#EAEAEA" stroke="#EAEAEA" stroke-width="0.2"/>
</svg>
