<svg width="32" height="32" viewBox="0 0 32 32" fill="none" xmlns="http://www.w3.org/2000/svg">
<mask id="path-1-outside-1_3828_7908" maskUnits="userSpaceOnUse" x="-0.273438" y="2.22998" width="33" height="28" fill="black">
<rect fill="white" x="-0.273438" y="2.22998" width="33" height="28"/>
<path fill-rule="evenodd" clip-rule="evenodd" d="M12.3344 8.1087C11.9659 8.30573 11.4322 8.3422 11.2658 8.4233C10.6629 8.73068 9.77801 9.59478 9.3808 10.1665C9.14813 10.5682 8.90977 11.8694 8.95023 12.5153C8.95937 12.7327 9.24187 13.0776 9.32159 13.3407L9.32 13.3426C8.59913 13.09 8.49937 12.6773 7.8271 12.9967C7.45745 13.1223 7.0548 13.2446 6.7755 13.4831C6.19328 14.0653 6.35636 14.5014 5.50965 14.4409C4.92866 14.4009 4.36517 14.1426 3.7836 14.1197C2.7804 14.1019 2.33044 14.5101 2.47111 15.5127C2.58488 16.6466 2.85582 17.1553 3.06859 17.779C3.44364 18.7871 3.10447 19.5572 3.17526 20.5152C3.11897 20.6037 2.99684 20.8112 2.9664 20.8631C1.6703 21.4063 -0.576103 22.6023 1.70774 23.7385C1.90296 23.85 2.08136 23.957 2.17123 24.1778C2.18897 25.1121 0.712921 27.3696 2.87879 26.8428C3.70922 26.6239 4.06574 25.8205 4.81081 25.5411C5.85512 25.1601 7.9694 25.2663 9.09098 25.3404C9.58026 25.4051 9.9734 25.6215 10.4422 25.7475C11.0044 25.8917 11.5528 25.9462 12.0484 26.0613C12.3737 26.1364 12.6852 26.2384 12.9971 26.4108C13.5524 26.8021 14.0693 27.1112 14.6627 27.3122C14.8833 27.3893 15.0166 27.5229 15.2222 27.6357C15.4019 27.6937 15.5304 27.5301 15.6949 27.4613C15.993 27.3073 16.3032 27.2082 16.6341 27.1753C18.3454 26.9845 17.891 28.8694 19.4519 27.3323C19.5755 27.2379 19.7052 27.1518 19.8709 27.196C20.1203 27.3579 20.1286 27.6971 20.2831 27.9633C20.7762 28.8665 21.3576 27.907 21.5409 27.9391C23.713 27.6746 23.2072 27.6184 23.9921 28.6191C24.255 28.9759 24.4754 28.7613 24.7158 28.6103C26.0206 27.4761 24.0516 26.6234 25.1664 24.9237C25.5589 24.0628 27.1994 24.4549 27.9813 24.0266C28.9056 23.7428 28.1924 23.2768 28.0132 22.8189C28.0132 22.5744 28.2028 22.299 28.1164 22.0486C27.6946 20.8052 27.7283 21.3441 27.806 20.3955C27.8004 19.8798 27.3269 19.6984 26.9667 19.4765C26.2624 19.1501 26.9109 18.6742 27.0881 18.6919C27.9156 18.8436 28.2291 19.4935 29.0647 19.1656C29.4892 19.0234 29.8 18.7229 30.1499 18.4339C31.0704 17.7579 31.7109 17.4364 30.8123 16.3861C29.2826 14.5322 29.3182 15.2707 28.4468 15.0902C28.4286 14.7979 28.5718 14.4641 28.4454 14.1712C27.7905 13.1926 26.9829 13.6316 26.338 12.4568C25.7511 11.7168 26.1215 11.4496 25.9954 10.8445C25.8535 10.2737 25.1852 10.2002 25.0897 9.851C25.068 8.79595 25.6228 8.49403 25.0555 7.59145C24.9336 6.97148 25.2965 6.26604 24.814 5.78757C24.6177 5.5958 23.125 4.75842 22.5243 4.65965C21.8437 4.55744 21.4607 5.80285 20.8391 5.15619C20.5693 4.73114 20.5341 4.14845 20.1185 3.85387C19.2682 3.31494 18.8212 4.61131 18.4307 4.0693C18.1185 3.75437 17.8444 3.45238 17.4381 3.30588C15.9493 2.86261 15.4068 4.49138 14.5494 4.82333C13.8831 5.11374 13.1071 5.1049 12.571 5.44991C11.7022 5.94885 11.2817 7.61677 12.3344 8.1087ZM22.4392 5.15366C22.7959 5.22723 23.4992 5.5684 23.9451 5.81448C24.8353 6.244 24.5458 6.45103 24.5283 7.36538C24.5222 7.55407 24.5597 7.73919 24.6563 7.92039C25.1313 8.58514 24.3068 9.4166 24.6712 10.1474C24.7573 10.3077 24.8851 10.4226 25.0411 10.5362C26.032 11.077 25.1244 11.5478 25.7207 12.4345C26.695 13.963 26.9209 13.5964 27.7978 14.1738C28.1583 14.3907 27.9215 14.7077 27.9449 15.0561C27.9535 15.2668 28.0234 15.4187 28.1794 15.513C29.5249 15.9209 28.9078 14.9684 30.2985 16.548C31.021 17.374 30.7699 17.3578 30.0699 17.8641C29.5013 18.2618 28.8956 19.0809 28.1539 18.5987C26.3986 17.4653 26.0498 19.122 26.1397 19.3051C26.2633 19.7612 26.8477 19.9363 27.1983 20.2088C27.4765 20.4607 27.1064 21.1021 27.3517 21.448C28.072 22.8764 26.9927 22.3949 27.8709 23.5347C26.8923 23.9305 26.2963 23.7076 25.4276 24.028C24.9418 24.2085 24.7499 24.6064 24.5304 25.0839C23.7563 26.7267 25.3231 27.6614 24.3433 28.2589C23.8292 27.5655 23.6875 27.1493 22.7802 27.2993C21.0457 27.4695 21.3671 27.4363 20.7926 27.8389C20.4252 27.0752 20.2373 26.3513 19.301 26.832C19.002 26.9986 18.7258 27.3933 18.4984 27.4398C18.2954 27.3273 18.0586 27.015 17.8493 26.8889C17.0761 26.4909 16.0579 26.6617 15.3196 27.097C14.9452 26.8528 14.5364 26.7366 14.144 26.5543C13.3443 26.0811 13.1524 25.8391 12.463 25.6624C11.9503 25.515 11.4181 25.4523 10.8297 25.3251C10.1826 25.2019 9.69007 24.8995 9.0564 24.8338C7.90086 24.764 5.61894 24.6829 4.58145 25.0943C3.54455 25.5273 3.36503 26.4814 2.20988 26.4037C2.1881 25.9416 2.41276 25.3575 2.54871 24.8737C3.34156 23.0077 0.345166 23.3313 1.5092 22.2504C2.38277 21.5159 3.25542 21.4332 3.4162 21.0948C3.53566 20.8752 3.62267 20.7949 3.68092 20.6197C3.65813 20.2426 3.65916 19.8824 3.69973 19.5304C3.88949 18.1408 3.48167 17.5287 3.19688 16.6557C2.74941 14.8682 2.78589 14.4529 4.14634 14.668C6.89791 15.4205 6.4359 14.4017 7.17239 13.806C7.49003 13.5876 7.91012 13.5116 8.24983 13.3762C8.57949 13.4674 8.86345 13.7891 9.24771 13.8373C10.1858 13.8002 9.74081 12.9686 9.45253 12.5017C9.39573 11.9526 9.60687 10.9369 9.79414 10.4395C11.7247 8.04675 11.9259 9.19992 12.8325 8.3454C12.9797 8.16575 12.9445 7.91908 12.7425 7.77656C12.5526 7.63222 12.343 7.58414 12.2453 7.33669C12.087 6.86448 12.4389 6.11578 12.7903 5.91235C13.4387 5.48208 14.4373 5.5868 15.1516 5.04863C15.8487 4.55298 16.3096 3.49781 17.2787 3.77722C17.7787 3.95309 18.0368 4.5364 18.4643 4.69082C18.9385 4.84466 19.3049 4.31859 19.6853 4.226C20.2997 4.19968 20.0732 6.36057 21.685 5.72229C21.9561 5.58746 22.0924 5.30254 22.4392 5.15366Z"/>
</mask>
<path fill-rule="evenodd" clip-rule="evenodd" d="M12.3344 8.1087C11.9659 8.30573 11.4322 8.3422 11.2658 8.4233C10.6629 8.73068 9.77801 9.59478 9.3808 10.1665C9.14813 10.5682 8.90977 11.8694 8.95023 12.5153C8.95937 12.7327 9.24187 13.0776 9.32159 13.3407L9.32 13.3426C8.59913 13.09 8.49937 12.6773 7.8271 12.9967C7.45745 13.1223 7.0548 13.2446 6.7755 13.4831C6.19328 14.0653 6.35636 14.5014 5.50965 14.4409C4.92866 14.4009 4.36517 14.1426 3.7836 14.1197C2.7804 14.1019 2.33044 14.5101 2.47111 15.5127C2.58488 16.6466 2.85582 17.1553 3.06859 17.779C3.44364 18.7871 3.10447 19.5572 3.17526 20.5152C3.11897 20.6037 2.99684 20.8112 2.9664 20.8631C1.6703 21.4063 -0.576103 22.6023 1.70774 23.7385C1.90296 23.85 2.08136 23.957 2.17123 24.1778C2.18897 25.1121 0.712921 27.3696 2.87879 26.8428C3.70922 26.6239 4.06574 25.8205 4.81081 25.5411C5.85512 25.1601 7.9694 25.2663 9.09098 25.3404C9.58026 25.4051 9.9734 25.6215 10.4422 25.7475C11.0044 25.8917 11.5528 25.9462 12.0484 26.0613C12.3737 26.1364 12.6852 26.2384 12.9971 26.4108C13.5524 26.8021 14.0693 27.1112 14.6627 27.3122C14.8833 27.3893 15.0166 27.5229 15.2222 27.6357C15.4019 27.6937 15.5304 27.5301 15.6949 27.4613C15.993 27.3073 16.3032 27.2082 16.6341 27.1753C18.3454 26.9845 17.891 28.8694 19.4519 27.3323C19.5755 27.2379 19.7052 27.1518 19.8709 27.196C20.1203 27.3579 20.1286 27.6971 20.2831 27.9633C20.7762 28.8665 21.3576 27.907 21.5409 27.9391C23.713 27.6746 23.2072 27.6184 23.9921 28.6191C24.255 28.9759 24.4754 28.7613 24.7158 28.6103C26.0206 27.4761 24.0516 26.6234 25.1664 24.9237C25.5589 24.0628 27.1994 24.4549 27.9813 24.0266C28.9056 23.7428 28.1924 23.2768 28.0132 22.8189C28.0132 22.5744 28.2028 22.299 28.1164 22.0486C27.6946 20.8052 27.7283 21.3441 27.806 20.3955C27.8004 19.8798 27.3269 19.6984 26.9667 19.4765C26.2624 19.1501 26.9109 18.6742 27.0881 18.6919C27.9156 18.8436 28.2291 19.4935 29.0647 19.1656C29.4892 19.0234 29.8 18.7229 30.1499 18.4339C31.0704 17.7579 31.7109 17.4364 30.8123 16.3861C29.2826 14.5322 29.3182 15.2707 28.4468 15.0902C28.4286 14.7979 28.5718 14.4641 28.4454 14.1712C27.7905 13.1926 26.9829 13.6316 26.338 12.4568C25.7511 11.7168 26.1215 11.4496 25.9954 10.8445C25.8535 10.2737 25.1852 10.2002 25.0897 9.851C25.068 8.79595 25.6228 8.49403 25.0555 7.59145C24.9336 6.97148 25.2965 6.26604 24.814 5.78757C24.6177 5.5958 23.125 4.75842 22.5243 4.65965C21.8437 4.55744 21.4607 5.80285 20.8391 5.15619C20.5693 4.73114 20.5341 4.14845 20.1185 3.85387C19.2682 3.31494 18.8212 4.61131 18.4307 4.0693C18.1185 3.75437 17.8444 3.45238 17.4381 3.30588C15.9493 2.86261 15.4068 4.49138 14.5494 4.82333C13.8831 5.11374 13.1071 5.1049 12.571 5.44991C11.7022 5.94885 11.2817 7.61677 12.3344 8.1087ZM22.4392 5.15366C22.7959 5.22723 23.4992 5.5684 23.9451 5.81448C24.8353 6.244 24.5458 6.45103 24.5283 7.36538C24.5222 7.55407 24.5597 7.73919 24.6563 7.92039C25.1313 8.58514 24.3068 9.4166 24.6712 10.1474C24.7573 10.3077 24.8851 10.4226 25.0411 10.5362C26.032 11.077 25.1244 11.5478 25.7207 12.4345C26.695 13.963 26.9209 13.5964 27.7978 14.1738C28.1583 14.3907 27.9215 14.7077 27.9449 15.0561C27.9535 15.2668 28.0234 15.4187 28.1794 15.513C29.5249 15.9209 28.9078 14.9684 30.2985 16.548C31.021 17.374 30.7699 17.3578 30.0699 17.8641C29.5013 18.2618 28.8956 19.0809 28.1539 18.5987C26.3986 17.4653 26.0498 19.122 26.1397 19.3051C26.2633 19.7612 26.8477 19.9363 27.1983 20.2088C27.4765 20.4607 27.1064 21.1021 27.3517 21.448C28.072 22.8764 26.9927 22.3949 27.8709 23.5347C26.8923 23.9305 26.2963 23.7076 25.4276 24.028C24.9418 24.2085 24.7499 24.6064 24.5304 25.0839C23.7563 26.7267 25.3231 27.6614 24.3433 28.2589C23.8292 27.5655 23.6875 27.1493 22.7802 27.2993C21.0457 27.4695 21.3671 27.4363 20.7926 27.8389C20.4252 27.0752 20.2373 26.3513 19.301 26.832C19.002 26.9986 18.7258 27.3933 18.4984 27.4398C18.2954 27.3273 18.0586 27.015 17.8493 26.8889C17.0761 26.4909 16.0579 26.6617 15.3196 27.097C14.9452 26.8528 14.5364 26.7366 14.144 26.5543C13.3443 26.0811 13.1524 25.8391 12.463 25.6624C11.9503 25.515 11.4181 25.4523 10.8297 25.3251C10.1826 25.2019 9.69007 24.8995 9.0564 24.8338C7.90086 24.764 5.61894 24.6829 4.58145 25.0943C3.54455 25.5273 3.36503 26.4814 2.20988 26.4037C2.1881 25.9416 2.41276 25.3575 2.54871 24.8737C3.34156 23.0077 0.345166 23.3313 1.5092 22.2504C2.38277 21.5159 3.25542 21.4332 3.4162 21.0948C3.53566 20.8752 3.62267 20.7949 3.68092 20.6197C3.65813 20.2426 3.65916 19.8824 3.69973 19.5304C3.88949 18.1408 3.48167 17.5287 3.19688 16.6557C2.74941 14.8682 2.78589 14.4529 4.14634 14.668C6.89791 15.4205 6.4359 14.4017 7.17239 13.806C7.49003 13.5876 7.91012 13.5116 8.24983 13.3762C8.57949 13.4674 8.86345 13.7891 9.24771 13.8373C10.1858 13.8002 9.74081 12.9686 9.45253 12.5017C9.39573 11.9526 9.60687 10.9369 9.79414 10.4395C11.7247 8.04675 11.9259 9.19992 12.8325 8.3454C12.9797 8.16575 12.9445 7.91908 12.7425 7.77656C12.5526 7.63222 12.343 7.58414 12.2453 7.33669C12.087 6.86448 12.4389 6.11578 12.7903 5.91235C13.4387 5.48208 14.4373 5.5868 15.1516 5.04863C15.8487 4.55298 16.3096 3.49781 17.2787 3.77722C17.7787 3.95309 18.0368 4.5364 18.4643 4.69082C18.9385 4.84466 19.3049 4.31859 19.6853 4.226C20.2997 4.19968 20.0732 6.36057 21.685 5.72229C21.9561 5.58746 22.0924 5.30254 22.4392 5.15366Z" fill="#FAFAFA"/>
<path fill-rule="evenodd" clip-rule="evenodd" d="M12.3344 8.1087C11.9659 8.30573 11.4322 8.3422 11.2658 8.4233C10.6629 8.73068 9.77801 9.59478 9.3808 10.1665C9.14813 10.5682 8.90977 11.8694 8.95023 12.5153C8.95937 12.7327 9.24187 13.0776 9.32159 13.3407L9.32 13.3426C8.59913 13.09 8.49937 12.6773 7.8271 12.9967C7.45745 13.1223 7.0548 13.2446 6.7755 13.4831C6.19328 14.0653 6.35636 14.5014 5.50965 14.4409C4.92866 14.4009 4.36517 14.1426 3.7836 14.1197C2.7804 14.1019 2.33044 14.5101 2.47111 15.5127C2.58488 16.6466 2.85582 17.1553 3.06859 17.779C3.44364 18.7871 3.10447 19.5572 3.17526 20.5152C3.11897 20.6037 2.99684 20.8112 2.9664 20.8631C1.6703 21.4063 -0.576103 22.6023 1.70774 23.7385C1.90296 23.85 2.08136 23.957 2.17123 24.1778C2.18897 25.1121 0.712921 27.3696 2.87879 26.8428C3.70922 26.6239 4.06574 25.8205 4.81081 25.5411C5.85512 25.1601 7.9694 25.2663 9.09098 25.3404C9.58026 25.4051 9.9734 25.6215 10.4422 25.7475C11.0044 25.8917 11.5528 25.9462 12.0484 26.0613C12.3737 26.1364 12.6852 26.2384 12.9971 26.4108C13.5524 26.8021 14.0693 27.1112 14.6627 27.3122C14.8833 27.3893 15.0166 27.5229 15.2222 27.6357C15.4019 27.6937 15.5304 27.5301 15.6949 27.4613C15.993 27.3073 16.3032 27.2082 16.6341 27.1753C18.3454 26.9845 17.891 28.8694 19.4519 27.3323C19.5755 27.2379 19.7052 27.1518 19.8709 27.196C20.1203 27.3579 20.1286 27.6971 20.2831 27.9633C20.7762 28.8665 21.3576 27.907 21.5409 27.9391C23.713 27.6746 23.2072 27.6184 23.9921 28.6191C24.255 28.9759 24.4754 28.7613 24.7158 28.6103C26.0206 27.4761 24.0516 26.6234 25.1664 24.9237C25.5589 24.0628 27.1994 24.4549 27.9813 24.0266C28.9056 23.7428 28.1924 23.2768 28.0132 22.8189C28.0132 22.5744 28.2028 22.299 28.1164 22.0486C27.6946 20.8052 27.7283 21.3441 27.806 20.3955C27.8004 19.8798 27.3269 19.6984 26.9667 19.4765C26.2624 19.1501 26.9109 18.6742 27.0881 18.6919C27.9156 18.8436 28.2291 19.4935 29.0647 19.1656C29.4892 19.0234 29.8 18.7229 30.1499 18.4339C31.0704 17.7579 31.7109 17.4364 30.8123 16.3861C29.2826 14.5322 29.3182 15.2707 28.4468 15.0902C28.4286 14.7979 28.5718 14.4641 28.4454 14.1712C27.7905 13.1926 26.9829 13.6316 26.338 12.4568C25.7511 11.7168 26.1215 11.4496 25.9954 10.8445C25.8535 10.2737 25.1852 10.2002 25.0897 9.851C25.068 8.79595 25.6228 8.49403 25.0555 7.59145C24.9336 6.97148 25.2965 6.26604 24.814 5.78757C24.6177 5.5958 23.125 4.75842 22.5243 4.65965C21.8437 4.55744 21.4607 5.80285 20.8391 5.15619C20.5693 4.73114 20.5341 4.14845 20.1185 3.85387C19.2682 3.31494 18.8212 4.61131 18.4307 4.0693C18.1185 3.75437 17.8444 3.45238 17.4381 3.30588C15.9493 2.86261 15.4068 4.49138 14.5494 4.82333C13.8831 5.11374 13.1071 5.1049 12.571 5.44991C11.7022 5.94885 11.2817 7.61677 12.3344 8.1087ZM22.4392 5.15366C22.7959 5.22723 23.4992 5.5684 23.9451 5.81448C24.8353 6.244 24.5458 6.45103 24.5283 7.36538C24.5222 7.55407 24.5597 7.73919 24.6563 7.92039C25.1313 8.58514 24.3068 9.4166 24.6712 10.1474C24.7573 10.3077 24.8851 10.4226 25.0411 10.5362C26.032 11.077 25.1244 11.5478 25.7207 12.4345C26.695 13.963 26.9209 13.5964 27.7978 14.1738C28.1583 14.3907 27.9215 14.7077 27.9449 15.0561C27.9535 15.2668 28.0234 15.4187 28.1794 15.513C29.5249 15.9209 28.9078 14.9684 30.2985 16.548C31.021 17.374 30.7699 17.3578 30.0699 17.8641C29.5013 18.2618 28.8956 19.0809 28.1539 18.5987C26.3986 17.4653 26.0498 19.122 26.1397 19.3051C26.2633 19.7612 26.8477 19.9363 27.1983 20.2088C27.4765 20.4607 27.1064 21.1021 27.3517 21.448C28.072 22.8764 26.9927 22.3949 27.8709 23.5347C26.8923 23.9305 26.2963 23.7076 25.4276 24.028C24.9418 24.2085 24.7499 24.6064 24.5304 25.0839C23.7563 26.7267 25.3231 27.6614 24.3433 28.2589C23.8292 27.5655 23.6875 27.1493 22.7802 27.2993C21.0457 27.4695 21.3671 27.4363 20.7926 27.8389C20.4252 27.0752 20.2373 26.3513 19.301 26.832C19.002 26.9986 18.7258 27.3933 18.4984 27.4398C18.2954 27.3273 18.0586 27.015 17.8493 26.8889C17.0761 26.4909 16.0579 26.6617 15.3196 27.097C14.9452 26.8528 14.5364 26.7366 14.144 26.5543C13.3443 26.0811 13.1524 25.8391 12.463 25.6624C11.9503 25.515 11.4181 25.4523 10.8297 25.3251C10.1826 25.2019 9.69007 24.8995 9.0564 24.8338C7.90086 24.764 5.61894 24.6829 4.58145 25.0943C3.54455 25.5273 3.36503 26.4814 2.20988 26.4037C2.1881 25.9416 2.41276 25.3575 2.54871 24.8737C3.34156 23.0077 0.345166 23.3313 1.5092 22.2504C2.38277 21.5159 3.25542 21.4332 3.4162 21.0948C3.53566 20.8752 3.62267 20.7949 3.68092 20.6197C3.65813 20.2426 3.65916 19.8824 3.69973 19.5304C3.88949 18.1408 3.48167 17.5287 3.19688 16.6557C2.74941 14.8682 2.78589 14.4529 4.14634 14.668C6.89791 15.4205 6.4359 14.4017 7.17239 13.806C7.49003 13.5876 7.91012 13.5116 8.24983 13.3762C8.57949 13.4674 8.86345 13.7891 9.24771 13.8373C10.1858 13.8002 9.74081 12.9686 9.45253 12.5017C9.39573 11.9526 9.60687 10.9369 9.79414 10.4395C11.7247 8.04675 11.9259 9.19992 12.8325 8.3454C12.9797 8.16575 12.9445 7.91908 12.7425 7.77656C12.5526 7.63222 12.343 7.58414 12.2453 7.33669C12.087 6.86448 12.4389 6.11578 12.7903 5.91235C13.4387 5.48208 14.4373 5.5868 15.1516 5.04863C15.8487 4.55298 16.3096 3.49781 17.2787 3.77722C17.7787 3.95309 18.0368 4.5364 18.4643 4.69082C18.9385 4.84466 19.3049 4.31859 19.6853 4.226C20.2997 4.19968 20.0732 6.36057 21.685 5.72229C21.9561 5.58746 22.0924 5.30254 22.4392 5.15366Z" stroke="#FAFAFA" stroke-width="1.2" mask="url(#path-1-outside-1_3828_7908)"/>
<path d="M19.183 21V15.874L17.181 19.691H16.334L14.332 15.874V21H12.814V13.19H14.442L16.752 17.634L19.084 13.19H20.701V21H19.183Z" fill="#FAFAFA"/>
</svg>
