<svg width="28" height="28" viewBox="0 0 28 28" fill="none" xmlns="http://www.w3.org/2000/svg">
<path d="M11.7996 12.4258C11.7996 10.3441 13.4929 8.65078 15.5746 8.65078C17.6563 8.65078 19.3496 10.3441 19.3496 12.4258C19.3496 14.5075 17.6563 16.2008 15.5746 16.2008C13.4929 16.2008 11.7996 14.5075 11.7996 12.4258ZM13.0496 12.4258C13.0496 13.8196 14.1808 14.9508 15.5746 14.9508C16.9684 14.9508 18.0996 13.8196 18.0996 12.4258C18.0996 11.032 16.9684 9.90078 15.5746 9.90078C14.1808 9.90078 13.0496 11.032 13.0496 12.4258ZM8.22461 4.45078H22.9246C25.0063 4.45078 26.6996 6.14405 26.6996 8.22578V16.6258C26.6996 18.7075 25.0063 20.4008 22.9246 20.4008H8.22461C6.14288 20.4008 4.44961 18.7075 4.44961 16.6258V8.22578C4.44961 6.14405 6.14288 4.45078 8.22461 4.45078ZM22.9246 19.1508C24.3184 19.1508 25.4496 18.0196 25.4496 16.6258V8.22578C25.4496 6.83201 24.3184 5.70078 22.9246 5.70078H8.22461C6.83084 5.70078 5.69961 6.83201 5.69961 8.22578V16.6258C5.69961 18.0196 6.83084 19.1508 8.22461 19.1508H22.9246ZM21.4496 22.9258C21.4496 23.275 21.1738 23.5508 20.8246 23.5508H6.12461C3.46538 23.5508 1.29961 21.385 1.29961 18.7258V10.3258C1.29961 9.97655 1.57538 9.70078 1.92461 9.70078C2.27384 9.70078 2.54961 9.97655 2.54961 10.3258V18.7258C2.54961 20.6971 4.15334 22.3008 6.12461 22.3008H20.8246C21.1738 22.3008 21.4496 22.5766 21.4496 22.9258Z" fill="#FAFAFA" stroke="#FAFAFA" stroke-width="0.2"/>
</svg>
