<svg width="32" height="32" viewBox="0 0 32 32" fill="none" xmlns="http://www.w3.org/2000/svg">
<path d="M25.4 7.88571H21.3143V7.4C21.3143 4.35968 18.8403 1.88571 15.8 1.88571H7.4C4.35968 1.88571 1.88571 4.35968 1.88571 7.4V25.4C1.88571 28.4403 4.35968 30.9143 7.4 30.9143H25.4C28.4403 30.9143 30.9143 28.4403 30.9143 25.4V13.4C30.9143 10.3597 28.4403 7.88571 25.4 7.88571ZM3.31429 25.4V7.4C3.31429 5.14712 5.14712 3.31429 7.4 3.31429H15.8C18.0529 3.31429 19.8857 5.14712 19.8857 7.4V29.4857H7.4C5.14712 29.4857 3.31429 27.6529 3.31429 25.4ZM29.4857 25.4C29.4857 27.6529 27.6529 29.4857 25.4 29.4857H21.3143V9.31429H25.4C27.6529 9.31429 29.4857 11.1471 29.4857 13.4V25.4ZM9.8 18.9143C10.1943 18.9143 10.5143 18.5943 10.5143 18.2C10.5143 17.8057 10.1943 17.4857 9.8 17.4857H7.4C7.00568 17.4857 6.68571 17.8057 6.68571 18.2C6.68571 18.5943 7.00568 18.9143 7.4 18.9143H9.8ZM9.8 23.7143C10.1943 23.7143 10.5143 23.3943 10.5143 23C10.5143 22.6057 10.1943 22.2857 9.8 22.2857H7.4C7.00568 22.2857 6.68571 22.6057 6.68571 23C6.68571 23.3943 7.00568 23.7143 7.4 23.7143H9.8ZM15.8 23.7143C16.1943 23.7143 16.5143 23.3943 16.5143 23C16.5143 22.6057 16.1943 22.2857 15.8 22.2857H13.4C13.0057 22.2857 12.6857 22.6057 12.6857 23C12.6857 23.3943 13.0057 23.7143 13.4 23.7143H15.8ZM9.8 9.31429C10.1943 9.31429 10.5143 8.99432 10.5143 8.6C10.5143 8.20568 10.1943 7.88571 9.8 7.88571H7.4C7.00568 7.88571 6.68571 8.20568 6.68571 8.6C6.68571 8.99432 7.00568 9.31429 7.4 9.31429H9.8ZM9.8 14.1143C10.1943 14.1143 10.5143 13.7943 10.5143 13.4C10.5143 13.0057 10.1943 12.6857 9.8 12.6857H7.4C7.00568 12.6857 6.68571 13.0057 6.68571 13.4C6.68571 13.7943 7.00568 14.1143 7.4 14.1143H9.8ZM15.8 18.9143C16.1943 18.9143 16.5143 18.5943 16.5143 18.2C16.5143 17.8057 16.1943 17.4857 15.8 17.4857H13.4C13.0057 17.4857 12.6857 17.8057 12.6857 18.2C12.6857 18.5943 13.0057 18.9143 13.4 18.9143H15.8ZM15.8 9.31429C16.1943 9.31429 16.5143 8.99432 16.5143 8.6C16.5143 8.20568 16.1943 7.88571 15.8 7.88571H13.4C13.0057 7.88571 12.6857 8.20568 12.6857 8.6C12.6857 8.99432 13.0057 9.31429 13.4 9.31429H15.8ZM15.8 14.1143C16.1943 14.1143 16.5143 13.7943 16.5143 13.4C16.5143 13.0057 16.1943 12.6857 15.8 12.6857H13.4C13.0057 12.6857 12.6857 13.0057 12.6857 13.4C12.6857 13.7943 13.0057 14.1143 13.4 14.1143H15.8ZM25.4 23.7143C25.7943 23.7143 26.1143 23.3943 26.1143 23C26.1143 22.6057 25.7943 22.2857 25.4 22.2857H24.2C23.8057 22.2857 23.4857 22.6057 23.4857 23C23.4857 23.3943 23.8057 23.7143 24.2 23.7143H25.4ZM25.4 14.1143C25.7943 14.1143 26.1143 13.7943 26.1143 13.4C26.1143 13.0057 25.7943 12.6857 25.4 12.6857H24.2C23.8057 12.6857 23.4857 13.0057 23.4857 13.4C23.4857 13.7943 23.8057 14.1143 24.2 14.1143H25.4ZM25.4 18.9143C25.7943 18.9143 26.1143 18.5943 26.1143 18.2C26.1143 17.8057 25.7943 17.4857 25.4 17.4857H24.2C23.8057 17.4857 23.4857 17.8057 23.4857 18.2C23.4857 18.5943 23.8057 18.9143 24.2 18.9143H25.4Z" fill="#FAFAFA" stroke="#FAFAFA" stroke-width="0.228571"/>
</svg>
