<svg width="20" height="21" viewBox="0 0 20 21" fill="none" xmlns="http://www.w3.org/2000/svg">
<g clip-path="url(#clip0_4533_24237)">
<path d="M0 3C0 2.33696 0.263392 1.70107 0.732233 1.23223C1.20107 0.763392 1.83696 0.5 2.5 0.5L17.5 0.5C18.163 0.5 18.7989 0.763392 19.2678 1.23223C19.7366 1.70107 20 2.33696 20 3V18C20 18.663 19.7366 19.2989 19.2678 19.7678C18.7989 20.2366 18.163 20.5 17.5 20.5H2.5C1.83696 20.5 1.20107 20.2366 0.732233 19.7678C0.263392 19.2989 0 18.663 0 18V3ZM18.75 5.5H13.75V9.25H18.75V5.5ZM18.75 10.5H13.75V14.25H18.75V10.5ZM18.75 15.5H13.75V19.25H17.5C17.8315 19.25 18.1495 19.1183 18.3839 18.8839C18.6183 18.6495 18.75 18.3315 18.75 18V15.5ZM12.5 19.25V15.5H7.5V19.25H12.5ZM6.25 19.25V15.5H1.25V18C1.25 18.3315 1.3817 18.6495 1.61612 18.8839C1.85054 19.1183 2.16848 19.25 2.5 19.25H6.25ZM1.25 14.25H6.25V10.5H1.25V14.25ZM1.25 9.25H6.25V5.5H1.25V9.25ZM7.5 5.5V9.25H12.5V5.5H7.5ZM12.5 10.5H7.5V14.25H12.5V10.5Z" fill="#FAFAFA"/>
</g>
<defs>
<clipPath id="clip0_4533_24237">
<rect width="20" height="20" fill="white" transform="translate(0 0.5)"/>
</clipPath>
</defs>
</svg>
