<svg width="80" height="80" viewBox="0 0 80 80" fill="none" xmlns="http://www.w3.org/2000/svg">
<g clip-path="url(#clip0_2990_19697)">
<path d="M26.6067 64.33C26.4033 65.0733 25.7333 65.56 25 65.56C10 61.6667 0 48.34 0 33.3333C0 14.9533 14.9533 0 33.3333 0C49.83 0 63.6767 11.8067 66.2533 28.0733C66.3967 28.98 65.7733 29.8367 64.8667 29.98C63.9733 30.1167 63.1067 29.5067 62.96 28.5933C60.6433 13.9567 48.18 3.33333 33.3333 3.33333C16.79 3.33333 3.33333 16.7933 3.33333 33.3333C3.33333 46.84 12.4233 58.7433 25.4367 62.2867C26.3267 62.5267 26.8467 63.4467 26.6067 64.33ZM80 58.3333V71.6667C80 76.2633 76.2633 80 71.6667 80H48.7367C42.4033 80 36.9033 75.49 35.66 69.28L33.56 62.1C32.9367 59.0133 33.6933 55.99 35.6 53.6633C37.5067 51.3367 40.3267 50 43.3333 50H53.9433L52.01 39.1167C51.9833 38.9 51.9467 37.2633 51.9867 37.1233C52.39 35.6433 53.3267 34.4767 54.6267 33.84C55.9367 33.1967 57.4533 33.1767 58.8933 33.7733C59.7433 34.1267 60.57 35 61.1667 36.17L68.4767 49.9967H71.6633C76.26 49.9967 79.9967 53.7333 79.9967 58.33L80 58.3333ZM66.8067 52.8767C66.2767 52.57 65.8333 52.1233 65.5333 51.56L58.21 37.71C57.8667 37.0333 57.5567 36.8233 57.5533 36.8233C57.0767 36.6267 56.5367 36.62 56.0933 36.8333C55.7267 37.0133 55.4433 37.3467 55.2733 37.7833L55.32 38.7533L57.2267 49.42C57.4033 50.39 57.14 51.3833 56.5033 52.14C55.86 52.9033 54.93 53.3333 53.9433 53.3333H43.3333C41.3267 53.3333 39.45 54.2233 38.1767 55.7733C36.9033 57.3233 36.4 59.3433 36.7933 61.3067L38.8933 68.4867C39.8567 73.28 43.9833 76.6633 48.7333 76.6633H66.6733L66.8033 52.8733L66.8067 52.8767ZM76.6667 58.3333C76.6667 55.5767 74.4233 53.3333 71.6667 53.3333H70.1367L70.01 76.6667H71.6667C74.4233 76.6667 76.6667 74.4233 76.6667 71.6667V58.3333ZM50.15 25C50.8033 24.3533 50.81 23.2967 50.1633 22.6433C49.52 21.9867 48.4633 21.9833 47.8067 22.63L33.34 36.9433C31.4767 38.7867 28.4533 38.7833 26.6 36.9433L19.5067 29.9333C18.85 29.2833 17.7933 29.2967 17.15 29.9467C16.5033 30.6033 16.51 31.6567 17.1633 32.3033L24.2567 39.3133C25.8333 40.87 27.9 41.65 29.97 41.65C32.04 41.65 34.11 40.87 35.6867 39.31L50.1533 24.9967L50.15 25Z" fill="#273C8D"/>
</g>
<defs>
<clipPath id="clip0_2990_19697">
<rect width="80" height="80" fill="white"/>
</clipPath>
</defs>
</svg>
