<svg width="20" height="21" viewBox="0 0 20 21" fill="none" xmlns="http://www.w3.org/2000/svg">
<path d="M0.625 12.875C0.79076 12.875 0.949732 12.9409 1.06694 13.0581C1.18415 13.1753 1.25 13.3342 1.25 13.5V16.625C1.25 16.9565 1.3817 17.2745 1.61612 17.5089C1.85054 17.7433 2.16848 17.875 2.5 17.875H17.5C17.8315 17.875 18.1495 17.7433 18.3839 17.5089C18.6183 17.2745 18.75 16.9565 18.75 16.625V13.5C18.75 13.3342 18.8158 13.1753 18.9331 13.0581C19.0503 12.9409 19.2092 12.875 19.375 12.875C19.5408 12.875 19.6997 12.9409 19.8169 13.0581C19.9342 13.1753 20 13.3342 20 13.5V16.625C20 17.288 19.7366 17.9239 19.2678 18.3928C18.7989 18.8616 18.163 19.125 17.5 19.125H2.5C1.83696 19.125 1.20107 18.8616 0.732233 18.3928C0.263392 17.9239 0 17.288 0 16.625V13.5C0 13.3342 0.065848 13.1753 0.183058 13.0581C0.300269 12.9409 0.45924 12.875 0.625 12.875Z" fill="#FAFAFA"/>
<path d="M9.5575 1.9325C9.61556 1.8743 9.68453 1.82812 9.76046 1.79661C9.83639 1.7651 9.91779 1.74889 10 1.74889C10.0822 1.74889 10.1636 1.7651 10.2395 1.79661C10.3155 1.82812 10.3844 1.8743 10.4425 1.9325L14.1925 5.6825C14.3099 5.79986 14.3758 5.95903 14.3758 6.125C14.3758 6.29097 14.3099 6.45015 14.1925 6.5675C14.0751 6.68486 13.916 6.75079 13.75 6.75079C13.584 6.75079 13.4249 6.68486 13.3075 6.5675L10.625 3.88375V14.875C10.625 15.0408 10.5592 15.1997 10.4419 15.3169C10.3247 15.4342 10.1658 15.5 10 15.5C9.83424 15.5 9.67527 15.4342 9.55806 15.3169C9.44085 15.1997 9.375 15.0408 9.375 14.875V3.88375L6.6925 6.5675C6.63439 6.62561 6.5654 6.67171 6.48948 6.70316C6.41356 6.73461 6.33218 6.75079 6.25 6.75079C6.16782 6.75079 6.08644 6.73461 6.01052 6.70316C5.9346 6.67171 5.86561 6.62561 5.8075 6.5675C5.74939 6.50939 5.70329 6.44041 5.67185 6.36448C5.6404 6.28856 5.62421 6.20718 5.62421 6.125C5.62421 6.04282 5.6404 5.96145 5.67185 5.88552C5.70329 5.8096 5.74939 5.74061 5.8075 5.6825L9.5575 1.9325Z" fill="#FAFAFA"/>
</svg>
