<svg width="32" height="33" viewBox="0 0 32 33" fill="none" xmlns="http://www.w3.org/2000/svg">
<path d="M22.1519 29.6209C22.5193 29.513 22.7284 29.1296 22.6205 28.7631L22.5698 28.5909L22.5655 28.5931C21.6729 25.8373 18.9954 23.9343 15.9972 23.9343C12.9374 23.9343 10.2126 25.9164 9.37613 28.7641C9.2682 29.1308 9.47743 29.5143 9.84507 29.6221L9.84513 29.6221C10.2085 29.7285 10.5962 29.5217 10.703 29.1526L10.5589 29.1109L10.7028 29.1533C11.3666 26.898 13.5413 25.3165 15.9983 25.3165C18.4552 25.3165 20.6298 26.8978 21.2937 29.1529C21.3812 29.4553 21.6572 29.6498 21.9566 29.6498C22.0225 29.6498 22.0878 29.64 22.1519 29.6209ZM22.1519 29.6209C22.152 29.6209 22.1521 29.6209 22.1522 29.6208L22.1094 29.4771L22.1516 29.621C22.1517 29.621 22.1518 29.6209 22.1519 29.6209ZM28.6529 19.871C29.0208 19.7629 29.2282 19.3793 29.1205 19.0132C28.284 16.1654 25.5592 14.1833 22.4994 14.1833C22.1175 14.1833 21.8077 14.4931 21.8077 14.8749C21.8077 15.2568 22.1175 15.5666 22.4994 15.5666C24.9552 15.5666 27.1309 17.1479 27.7948 19.4031C27.8825 19.707 28.1599 19.8999 28.4576 19.8999C28.5236 19.8999 28.5888 19.8901 28.6529 19.871ZM28.6529 19.871C28.6528 19.871 28.6527 19.871 28.6526 19.8711L28.6104 19.7271L28.6532 19.8709C28.6531 19.8709 28.653 19.871 28.6529 19.871ZM9.49944 14.1833C9.88128 14.1833 10.1911 14.4931 10.1911 14.8749C10.1911 15.2564 9.88276 15.5666 9.50053 15.5666C7.0436 15.5666 4.86898 17.1479 4.20513 19.403C4.11755 19.7054 3.84164 19.8999 3.54223 19.8999C3.47641 19.8999 3.41129 19.8901 3.34728 19.8711L9.49944 14.1833ZM9.49944 14.1833C6.43853 14.1833 3.71368 16.1654 2.8783 19.0133M9.49944 14.1833L2.8783 19.0133M2.8783 19.0133L3.02224 19.0555M2.8783 19.0133L3.02224 19.0555M3.02224 19.0555L2.87834 19.0131C2.77047 19.3796 2.97941 19.7628 3.34666 19.8709L3.02224 19.0555ZM20.4827 17.5832C20.4827 15.1106 18.4721 13.0999 15.9994 13.0999C13.5267 13.0999 11.5161 15.1106 11.5161 17.5832C11.5161 20.0559 13.5267 22.0665 15.9994 22.0665C18.4721 22.0665 20.4827 20.0559 20.4827 17.5832ZM15.9994 20.6832C14.2904 20.6832 12.8994 19.2922 12.8994 17.5832C12.8994 15.8743 14.2904 14.4833 15.9994 14.4833C17.7084 14.4833 19.0994 15.8743 19.0994 17.5832C19.0994 19.2922 17.7084 20.6832 15.9994 20.6832ZM22.4994 3.35C20.0267 3.35 18.016 5.36064 18.016 7.8333C18.016 10.306 20.0267 12.3166 22.4994 12.3166C24.972 12.3166 26.9827 10.306 26.9827 7.8333C26.9827 5.36064 24.972 3.35 22.4994 3.35ZM22.4994 10.9333C20.7904 10.9333 19.3994 9.54228 19.3994 7.8333C19.3994 6.12433 20.7904 4.73333 22.4994 4.73333C24.2083 4.73333 25.5993 6.12433 25.5993 7.8333C25.5993 9.54228 24.2083 10.9333 22.4994 10.9333ZM9.49944 3.35C7.02678 3.35 5.01614 5.36064 5.01614 7.8333C5.01614 10.306 7.02678 12.3166 9.49944 12.3166C11.9721 12.3166 13.9827 10.306 13.9827 7.8333C13.9827 5.36064 11.9721 3.35 9.49944 3.35ZM9.49944 10.9333C7.79046 10.9333 6.39947 9.54228 6.39947 7.8333C6.39947 6.12432 7.79046 4.73333 9.49944 4.73333C11.2084 4.73333 12.5994 6.12432 12.5994 7.8333C12.5994 9.54228 11.2084 10.9333 9.49944 10.9333Z" fill="#EAEAEA" stroke="#EAEAEA" stroke-width="0.3"/>
</svg>
